<?xml version="1.0" encoding="utf-8"?>
<!-- Generator: Adobe Illustrator 19.0.0, SVG Export Plug-In . SVG Version: 6.00 Build 0)  -->
<svg version="1.1" xmlns="http://www.w3.org/2000/svg" xmlns:xlink="http://www.w3.org/1999/xlink" x="0px" y="0px"
	 viewBox="0 0 612 792" style="enable-background:new 0 0 612 792;" xml:space="preserve">
<style type="text/css">
	.st0{fill:#00087E;}
	.st1{fill:#FFFFFF;}
	.st2{font-family:'MyriadPro-Regular';}
	.st3{font-size:25.0521px;}
	.st4{fill:#666666;}
	.st5{font-size:14.3623px;}
</style>
<g id="Layer_1">
	<g id="XMLID_6_">
		<path id="XMLID_4_" class="st0" d="M265.9,236.2c0.5-1.9,1-3.8,1.4-5.7c2.5-10.2,5.1-20.3,7.6-30.5c1.1-4.5,2.2-8.9,3.4-13.4
			c0.6-2.4,1.8-4.5,4.4-5.1c2.5-0.6,4.6,0,5.5,2.7c0.2,0.7,0.1,1.7-0.1,2.4c-1.5,6.3-3.1,12.6-4.7,18.9c-0.7,2.6-1.2,5.2-1,7.9
			c0.1,1.3,0.4,2.5,1.2,3.7c0.9,1.2,2.1,1.8,3.5,2.1c3.5,0.7,6.6-0.4,9.3-2.6c0.9-0.7,1.7-1.5,2.5-2.2c1.8-1.7,2-4.1,2.5-6.2
			c1.8-7.1,3.5-14.1,5.3-21.2c0.8-3.1,3.3-5.1,6.6-4.9c2,0.2,3.8,2.4,3.3,4.3c-2,8.3-4.1,16.5-6.1,24.8c-0.4,1.7-0.6,3.4-0.8,5.2
			c0,0.2,0,0.4,0,0.6c0.2,0.9,0.4,2,1.5,2.2c1.2,0.3,2.3-0.1,3.2-1c1.3-1.2,2-2.7,2.5-4.3c0.6-1.7,1-3.5,1.5-5.3
			c0.3-1.3,0.8-1.6,2.6-1.5c1.4,0.1,1.9,0.6,1.5,2c-1,3.5-2.1,6.9-4.4,9.8c-1.5,2-3.4,3.2-5.9,3.4c-3.9,0.2-7.3-0.7-10.1-3.6
			c-0.4-0.5-0.8-1.1-1.1-1.6c-1.3,0.9-2.5,1.9-3.9,2.8c-2.3,1.4-4.7,2.3-7.4,2.4c-3.3,0.2-6.5-0.2-9.6-1.2c-0.6-0.2-0.7,0-0.8,0.5
			c-0.7,3-1.4,6-2.2,9c-0.5,2-1,4-1.6,5.9c-0.7,2.3-2.4,3.5-4.7,4c-0.1,0-0.2,0.1-0.4,0.2c-0.4,0-0.7,0-1.1,0
			c-0.6-0.2-1.3-0.4-1.8-0.7c-1.1-0.5-1.4-1.7-1.8-2.7C265.9,237,265.9,236.6,265.9,236.2z"/>
		<path id="XMLID_3_" class="st1" d="M244.4,259.3c1,2.9,1.8,6,4.8,7.5c1.6,0.8,3.4,1.3,5.1,2c-3.3,0-6.6,0-9.9,0
			C244.4,265.5,244.4,262.4,244.4,259.3z"/>
		<text id="XMLID_2_" transform="matrix(1 0 0 1 333.6542 208.3408)" class="st2 st3">UniMorph</text>
		<g id="XMLID_1_">
			<text id="XMLID_22_" transform="matrix(1 0 0 1 333.6542 229.8017)" class="st4 st2 st5">Universal Morphological Annotation</text>
		</g>
	</g>
</g>
<g id="Layer_2">
	<path class="st1" d="M20.5,457.6c1.8,5.2,3.2,10.7,8.7,13.4c2.9,1.4,6.1,2.4,9.1,3.5c-5.9,0-11.9,0-17.8,0
		C20.5,468.9,20.5,463.2,20.5,457.6z"/>
</g>
</svg>
