<?xml version="1.0" encoding="utf-8"?>
<!-- Generator: Adobe Illustrator 19.0.0, SVG Export Plug-In . SVG Version: 6.00 Build 0)  -->
<svg version="1.1" xmlns="http://www.w3.org/2000/svg" xmlns:xlink="http://www.w3.org/1999/xlink" x="0px" y="0px"
	 viewBox="-447 305 128 160" enable-background="new -447 305 128 160" xml:space="preserve">
<g id="Layer_1" display="none">
	<g display="inline">
		<path fill="#8E8E8E" d="M-400.6,390.5c-7-6.6-10.7-15.4-10.9-24.3c-0.3-8.9,2.8-17.9,9.4-24.9l0,0l0,0l0,0
			c6.6-7,15.4-10.7,24.3-10.9c8.9-0.3,17.9,2.8,24.9,9.4l0,0l0,0l0,0c7,6.6,10.7,15.4,10.9,24.3c0.3,8.9-2.8,17.9-9.4,24.9l0,0l0,0
			l0,0c-6.6,7-15.4,10.7-24.3,10.9C-384.6,400.2-393.6,397.1-400.6,390.5L-400.6,390.5L-400.6,390.5L-400.6,390.5L-400.6,390.5z
			 M-411,366.2c0.3,8.7,3.9,17.4,10.8,23.9l0,0l0,0l0,0c6.9,6.5,15.7,9.5,24.5,9.2c8.7-0.3,17.4-3.9,23.9-10.8l0,0l0,0l0,0
			c6.5-6.9,9.5-15.7,9.2-24.5c-0.3-8.7-3.9-17.4-10.8-23.9l0,0l0,0l0,0c-6.9-6.5-15.7-9.5-24.5-9.2c-8.7,0.3-17.4,3.9-23.9,10.8l0,0
			l0,0l0,0C-408.2,348.6-411.2,357.5-411,366.2L-411,366.2z"/>
		<path fill="#8E8E8E" d="M-392.3,391.2L-392.3,391.2 M-385.6,386.8L-385.6,386.8 M-385.6,386.8L-385.6,386.8 M-393.5,353.9
			L-393.5,353.9 M-389.1,350.7L-389.1,350.7 M-389.5,349L-389.5,349 M-384.6,347.2L-384.6,347.2 M-395.4,346L-395.4,346 M-391.9,342
			L-391.9,342 M-391.9,342L-391.9,342 M-396.8,342L-396.8,342 M-392.3,340.7L-392.3,340.7 M-392.3,340.7L-392.3,340.7 M-400.4,342.1
			L-400.4,342.1 M-391.8,339.6L-391.8,339.6 M-395,340.1L-395,340.1 M-395,340.1L-395,340.1 M-387.3,336.7L-387.3,336.7
			 M-388.7,336.8L-388.7,336.8 M-379.4,334.5L-379.4,334.5 M-357.6,353.8L-357.6,353.8 M-356.2,352.4L-356.2,352.4 M-358.5,343.3
			L-358.5,343.3 M-360.7,339.1L-360.7,339.1 M-392.5,392.3c-0.1,0-0.1,0-0.2,0.1C-392.6,392.4-392.5,392.4-392.5,392.3
			c0.1,0.1,0.1,0.1,0.2,0.2c-0.1,0.2-0.1,0.3-0.1,0.5c0,0.1-0.1,0.2-0.1,0.3c0.2,0,0.4,0.1,0.6,0.1c-0.1,0.1-0.1,0.2-0.2,0.3
			c-0.2,0.3,0,0.6,0.2,1c0,0,0,0,0,0c0,0.1,0.1,0.2,0.1,0.3c0,0.1,0,0.1,0.1,0.2c0.1,0.2,0,0.1,0.1,0.2c0.5,0.9,0.1,0.3,0.6,0.7
			c0.1,0.1,0.1,0.1,0.1,0.2c0,0,0,0,0,0.1c0.3,0.4,0.9,0.7,1.2,1c0,0,0,0,0,0c0.1,0.1,0.3,0.2,0.5,0.3c0.3,0.1,0.5,0.2,0.8,0.3
			c0.1,0,0.1,0,0.2-0.1c0,0,0,0,0,0.1c0,0,0,0.1,0,0.1l0.2,0.1c0-0.1,0-0.1,0-0.2c0.2-0.1,0.3,0,0.5-0.2c-0.2-0.3-0.2-0.2-0.4-0.2
			c-0.3-0.1-0.6-0.4-0.9-0.6c-0.1-0.1-0.2-0.2-0.2-0.4c-0.2-0.4-0.4-0.5-0.7-1c0.5-0.3,0.2-0.1,0.3-0.6c0.1-0.2,0.3-0.4,0.4-0.5
			c0,0,0-0.1,0-0.1c0,0,0-0.2-0.4-0.4c-0.2-0.1-0.4-0.2-0.5-0.3c0-0.2,0-0.3,0-0.5c0.2,0,0.3,0,0.5,0c0-0.3-0.1-0.6-0.1-0.8
			c0.2-0.1,0.3-0.1,0.5-0.2c-0.1-0.5-0.1-0.3-0.5-0.5c-0.3-0.1-0.1,0.1-0.2-0.2c0,0,0,0,0-0.1c0-0.1-0.1-0.2-0.1-0.3
			c1.1,0.5,1,0.3,0.9-0.7c1.4,0.2,1.5-0.1,1.6-1c-0.2-0.3-0.2-0.1-0.3-0.3c0-0.1-0.1-0.2-0.1-0.3c-0.1-0.1-0.1-0.2-0.2-0.2
			c0,0-0.1-0.1-0.1-0.1c0.3,0,0.8,0.4,1.2,0.3c0.3-0.1,0.4-0.3,0.5-0.5c0.1-0.3,0.2-0.5,0.4-0.8c0.7-1,0.3-0.4,0.6-1.2
			c0.1-0.3,0.4-0.5,0.4-0.9c0-0.5-0.4-0.8,0.2-1.4c0.3-0.3,0.4-0.3,0.8-0.2c0-0.6,0.3-0.4,1.2-0.4c0.1-0.3,0.1-0.3,0.4-0.4
			c0-0.7,0.3-0.9,0.4-1.6c0-0.6,0.3-1.1,0.2-1.7c0-0.2-0.1-0.4,0-0.7c0-0.4,0-0.3,0.2-0.5c0.3-0.3,0.3-0.7,0.8-1.2
			c0.1-0.1,0.2-0.3,0.3-0.4c0-0.7,0-1.5-0.1-2.2c-1.1,0-1-1-1.8-1.2c-0.3-0.1-0.5,0.1-0.9-0.1c-0.7-0.3-0.5,0.2-0.9-0.7
			c-0.3,0.1-0.2,0.1-0.5,0c-0.3-0.2-0.6-0.2-0.9-0.3c-0.4-0.2,0.3,0.2-0.1-0.1c0,0-0.1,0-0.1-0.1c-0.2-0.1-0.4-0.3-0.5-0.4
			c0-0.1,0-0.1,0-0.2c0-0.4-0.3-0.5-0.4-1c-0.1-0.7-0.1-0.4-0.4-0.7c-0.4-0.4,0.3,0.3-0.1-0.1c-0.9-1-1.7,0-2.4-1.1
			c-0.3-0.5-0.4-0.6-0.9-0.7c0.1-0.6,0.1-0.4-0.7-0.8c0.1,0,0.3-0.1,0.4-0.2c-0.2-0.1-0.2,0-0.5,0c-0.5-0.1-0.3-0.7-0.6,0.3
			c-0.8,0,0-0.2-1.3-0.2c-0.1-0.2,0-0.2-0.2-0.3c-0.1-0.1-0.3-0.2-0.4-0.4c-0.4-0.1-0.2,0.2-0.3,0.3c-0.2,0.2-0.4,0.1-0.5,0
			c0.1-0.1,0.3-0.2,0.4-0.2c-0.1-0.1-0.1-0.2-0.2-0.2c-0.5,0.1-0.4,0.4-1.1,0.5c0,0,0,0,0,0c0,0,0,0,0,0c0,0,0,0,0,0
			c-0.7,0.2-0.4,0.2-0.6,0.7c-0.1,0.2,0,0-0.1,0.1c0,0,0,0,0,0c-0.1,0.2-0.3,0.2-0.5,0.3c-0.1-0.3-0.4-0.4-0.7-0.5
			c-0.2,0-0.5,0.2-0.8,0.3c-0.1,0-0.1-0.1-0.2-0.1c0,0,0,0,0,0c0,0,0,0,0,0c-0.2-0.2-0.3-0.3-0.5-0.5c-0.1-0.2-0.1-0.3,0-0.5
			c0.1-0.3,0-0.3,0.1-0.7c0-0.3,0.4-0.6,0.1-0.9c0,0-0.2-0.1-0.2-0.1c-0.2-0.1-0.1-0.1-0.3-0.1c-0.2,0-0.2,0-0.3-0.1
			c-0.1-0.1-0.1-0.1-0.2-0.2c0,0-0.1,0.1-0.1,0.2c0,0,0-0.1,0-0.2c-0.2,0.1-0.1,0-0.2,0.2c0.1,0,0.1,0,0.2,0
			c-0.3,0.1-0.6,0.1-0.9,0.2c0.1-0.2,0.1-0.5,0.2-0.7c0,0,0,0,0-0.1c0.2-0.3,0.3-0.4,0.4-0.9c0.2-0.6,0-0.1,0.2-0.4
			c0.1-0.1,0.1-0.1,0.1-0.5c-0.4-0.1-1.3,0.1-1.4,0.3c-0.5,0.4,0.2,0.7-0.9,1c-0.9,0.2-0.6,0.3-1.1,0c-0.2-0.1-0.2,0-0.3-0.2
			c-0.1-0.2-0.2-0.4-0.3-0.7c-0.1-0.4,0,0,0-0.3c-0.1-0.3-0.1,0-0.1-0.4c0-0.1,0.1-0.6,0.2-0.7c0.1-0.4,0.2-0.4,0.3-0.6
			c0.4-0.7-0.3-0.6,0.8-1.2c0.5-0.3,0.8-0.6,1.4-0.5c1,0.1,0,0.1,1.4,0.1c-0.1-0.2,0-0.1-0.1-0.2c0.1-0.1,0.2-0.1,0.3-0.2
			c0.5-0.2,0.6-0.1,1.1,0.1c0.2-0.1,0.4-0.2,0.6-0.3c0.2,0.4,0,0.1,0.3,0.5c-0.2,0.3-0.2,0.5-0.1,0.9c0.1,0.3,0.1,0.2,0.2,0.4
			c0.1,0.2,0.1,0.3,0.2,0.4c-0.1,0.1-0.3,0.1-0.4,0.2c1-0.1,1-1.1,0.9-1.9c-0.1-0.9-0.3-1.1,0.8-1.9c0.5-0.3,0-0.1,0.7-0.5
			c0.4-0.2,0-0.1,0.6-0.4c0.2-0.1,0.1-0.1,0.3-0.2c0.2-0.2,0.3,0.1,0.4-0.3c0.1-0.2,0-0.4,0-0.7c0.1-0.4,0.5-0.4,0.6-1
			c0.5-0.2,0.3-0.6,1-0.8c0.9-0.4,0.1-0.3,1.2-0.4c0.2-0.3,0.1-0.2,0.1-0.5c-0.1,0-0.2,0.1-0.2,0.1c0.1-0.8,0.6-0.8,1.2-1.1
			c0.3-0.1,0.2-0.2,0.6-0.2c0,1,0.4,0.3,1.2-0.1c0.3-0.1,0.4-0.2,0.7-0.3c0,0,0.1-0.1,0.2-0.1c0,0,0,0,0,0c0,0,0,0,0.1,0
			c0.1-0.1,0.3-0.2,0.5-0.3c0-0.2-0.1-0.4-0.1-0.6c-0.4,0.1-0.2,0.3-0.6,0.5c0-0.1,0-0.1,0-0.2c-0.2,0-0.3,0-0.5,0
			c-0.1-0.3,0-0.1-0.2-0.3c-0.1,0.2,0,0.1-0.2,0.2c0-0.3,0.3-0.6,0.5-1c-0.6-0.2-0.4-0.1-1,0c0.3-0.2,0.7-0.3,1-0.5c0,0,0,0,0,0
			c0,0,0,0,0,0c0.1,0.4,0.3,0.3,0.8,0.4c-0.1-0.3-0.1-0.2-0.5-0.4c-0.1,0-0.1-0.1-0.2-0.1c1.4-0.1,1,0.2,2-0.6
			c0.2-0.1,0.2-0.1,0.6-0.2c-0.3,0.3-0.5,0.5-0.7,0.9c-0.3,0.4-0.3,0.2-0.4,0.4c-0.2,0.2-0.2,0.3-0.2,0.6c0.4,0,0.7-0.1,1.1-0.1
			c-0.1,0.1-0.2,0.3-0.2,0.4c0.5-0.2,0.3,0,0.6-0.4c0.5,0,0.1,0,0.2,0.1c0,0.1,0.1,0.2,0.1,0.3c0.2-0.1,0.3-0.1,0.4-0.3
			c0.3-0.4,0.1-0.9,0-1.4c-0.2,0.1-0.3,0.1-0.5,0.2c0-0.1,0.1-0.1-0.1-0.2c0-0.1,0-0.1,0-0.2c0.6-0.1,0.2,0,0.4-0.4
			c0.1-0.3,0,0.2,0.1-0.2c0.2-0.1,0,0,0.1-0.3c0-0.2,0.1-0.4,0.1-0.6c-0.4-0.2-0.2,0-0.4-0.6c-0.4,0.1-0.6-0.2-0.9-0.5
			c0.3-0.5,0.1-0.9-0.1-1.9c-0.2,0.1-0.5,0.5-0.7,0.7c-0.3,0.2-0.6,0.3-0.9,0.5c-0.1-0.1-0.1-0.2-0.2-0.2c0.1-0.3,0.4-0.6,0.4-1
			c-0.1,0-0.3,0-0.4,0c-0.3,0-0.1,0-0.2-0.1c-0.1-0.2,0-0.1-0.4-0.5c-0.1,0-0.2,0-0.3,0c0,0.1-0.1,0.2-0.1,0.3
			c-0.8-0.4-1.2,0.4-1.6,0.7c0,0.1,0.1,0.3,0.1,0.4c-0.2,0.2-0.5,0.5-0.7,0.7c0.1,0.1,0.2,0.2,0.3,0.3c-0.2,0.4,0,0.8-1.1,1.3
			c-0.8,0.4-0.5,0-0.9,1.5c-0.5,0.3,0.3-0.4-0.7,0.4c-0.1-0.2-0.1-0.4-0.2-0.5c0.2-0.1,0.2,0.2,0.4-0.1c0.1-0.3,0-0.1-0.1-0.2
			c0,0,0,0,0,0c0,0,0,0,0,0c0,0-0.1,0-0.1,0c0.1-0.3,0.2-0.6,0.3-0.8c-0.6,0-0.8,0.1-1.3-0.2c-0.5-0.3-0.3-0.5-1.3-0.3
			c0-0.2,0-0.4,0.1-0.6c-0.1,0-0.2,0-0.3,0c0-0.3,0.1-0.4,0.3-0.6c0.3-0.4,0.6-0.6,1-0.8c0.2-0.1,0.3-0.2,0.5-0.4c0,0,0,0,0,0
			c0.3-0.2,0.4-0.2,0.7-0.4c0.8-0.7,0.2,0.2,1.9-1.2c-0.3,0.3-0.6,0.6-0.9,1c0.4-0.1,0.4,0,0.5,0.1c0.4-0.3,0.6-0.4,1-0.6
			c0.2,0.5,0.6-0.1,0.7-0.2c-0.6,0,0.2,0.1-0.7-0.3c0.1-0.2,0.2-0.1,0.3-0.2c0.3-0.3-0.2,0.3,0-0.1c0.1-0.2,0.1-0.1,0.2-0.1
			c0,0,0,0,0,0c0,0,0.1,0,0.1-0.1c0.4-0.2,0.6-0.3,0.7-0.5c0-0.1,0,0,0.1-0.2c0.1-0.2-0.1-0.1,0.4-0.4c0-0.2-0.1-0.3-0.1-0.5
			c0.5-0.1,0.3,0,0.7,0.1c-0.1,0.1-0.1,0.2-0.2,0.3c0.2-0.1,0.5-0.3,0.7-0.4c0,0.1,0,0.3,0.1,0.4c-0.2,0.1-0.4,0.2-0.5,0.3
			c0,0.1,0,0.2,0,0.3c1-0.1,0.2-0.3,1-0.4c0.2,0,0.2,0,0.4-0.2c0,0.1,0,0.2,0,0.3c-0.3,0-0.2,0-0.4,0.2c-1.1,0.7-0.1,0.4-0.7,0.7
			c-0.1,0.1-0.5,0.1-0.7,0.1c-0.3,0,0-0.1-0.7,0.4c0,0.2,0,0.1,0.1,0.2c-0.1,0.1-0.1,0.1-0.2,0.2c0,0,0.1,0,0.2,0
			c-0.1,0.1,0,0.1-0.1,0.3c0.1,0,0.1,0,0.2,0c-0.1-0.2,0-0.1-0.2-0.2c0-0.1,0-0.1,0-0.2c0.3,0.1,0.6-0.1,1-0.1
			c0.4-0.1,0.3-0.1,0.5,0.4c0.2,0.5,0,0.1,0.7,0.4c0.3,0,0.5,0.1,0.8,0.1c0,0.1,0,0.1,0,0.2c0.1,0,0.2,0,0.3,0c0-0.1,0-0.2,0-0.3
			c-0.2,0.1-0.1,0.1-0.3,0.2c0-0.1,0-0.2,0.1-0.3c-0.1-0.1-0.2-0.2-0.3-0.3c0.3,0.1,0.6,0.2,0.9,0.3c0.4-0.7,0.3-0.4,0.3-1.1
			c-0.2,0-0.3,0-0.5,0c0-0.1,0-0.2,0-0.3c0.1-0.1,0.3-0.1,0.4-0.2c0.1,0.2,0.3,0.4,0.5,0.5c0.3-0.1,0.1-0.1,0.3-0.2c0,0,0,0,0,0
			c0.5-0.4,0.3-0.1,0.8-0.7c-0.2-0.4,0-0.2-0.3-0.3c-0.1,0-0.1,0-0.2,0c0,0,0,0,0-0.1c-0.4-0.4-0.1-0.1-0.5-0.2
			c-0.1,0-0.2-0.1-0.3-0.1c0.2-0.1,0.3-0.1,0.5-0.2c-0.1-0.5,0-0.6-0.5-0.7c-0.2-0.1,0,0-0.2,0c0,0,0,0,0-0.1
			c-0.3-0.4,0.3,0.2-0.1-0.1c-0.2,0-0.3,0-0.5,0.1c-0.2-0.3-0.3-0.5-0.5-0.8c-0.6,0.1-0.9,0.1-1.3,0.1c-0.1,0-0.4,0.1-0.6,0.2
			c0,0-0.1,0-0.1,0c0,0,0,0,0,0c-1.1-0.2-1.8,0.8-2.3,1.5c0.3,0.4,0.4,0.3,0.8,0.2c-0.5,0.6,0,0.4-1,0.8c0-0.1,0-0.2,0.1-0.3
			c0,0-0.2-0.1-0.2-0.1c-0.2,0-0.5-0.1-0.7-0.1c0.3-0.4,0.1-0.2,0.2-0.6c0-0.3,0.1-0.5,0.4-0.6c0.1,0,0.4,0,1-0.4
			c0.1-0.1,0.2-0.2,0.3-0.3c-0.2,0-0.5,0.1-0.7,0.1c0,0,0-0.1,0-0.1c0,0,0,0,0-0.1c0.1-0.1,0.2-0.3,0.3-0.4c0.1-0.1-0.3,0,0.5-0.4
			c-0.1,0.2-0.2,0.5-0.3,0.7c0.5-0.1,1-0.1,1.5-0.2c0.1,0,0.1,0,0.3,0c0.5-0.1,1.6,0,1.8-0.7c0.3-0.2,0.6-0.5,1-0.7
			c0.2-0.2,0.9-0.4,1.3-0.6c0.4-0.2,0.2-0.2,0.5-0.4c0.7-0.2,1.4-0.4,2-0.5c0.1,0.1,0.1,0.1,0.2,0.2c-0.5,0.3-2.1,0.3-2.3,0.6
			c-0.1,0.3,0.3,0.1-0.1,0.2c-0.1,0.1-0.1,0.1-0.2,0.2c0.1,0,0.3,0.1,0.4,0.1c0.3,0.2,0,0.1,0.2,0.2c0.6,0.3,1.7-0.7,2.5,0.2
			c0,0.1,0.1,0.1,0.1,0.2c-0.2,0.1-0.1,0-0.1,0.1c-0.2,0.3,0.3-0.2,0,0.4c-0.1,0.3-0.2,0.5-0.4,0.8c0.1,0.1,0.3,0.1,0.4,0.1
			c-0.4,0.1-0.4,0.3-0.5,0.6c0.2,0.1,0.3,0.3,0.9-0.1c-0.2,0.8-0.2-0.3-1.1,0.9c-0.2,0.2-0.1,0.1-0.1,0.2c0,0.1,0,0.2-0.1,0.3
			c-0.1,0.2-0.1,0.2,0,0.4c0.1,0.5,0,0.5,0,0.8c0,0.2,0.1,0.2,0.2,0.5c0,0,0,0,0,0c0.1,0.3,0.2,0.5,0.3,0.8c0.5,0,0.4-0.2,0.8,0.2
			c0,0,0,0,0,0c0.7,0.5,0.9-0.7,1.6-1.3c0.1-0.1,0.2-0.1,0.3-0.3c0.1-0.2,0.3-0.4,0.4-0.6c0.3-0.4,0.8-0.3,1.2-0.5
			c0.3-0.1,0.5-0.2,0.8-0.4c1.3-1,0.3-0.4,2.3-0.8c0.4-0.1,0.7-0.3,1.1-0.4c0,0,0,0,0,0c0.1,0,0.1,0,0.2-0.1c0,0,0,0,0.1,0
			c0.1-0.1,0.2-0.1,0.4-0.2c0.1-0.1,0.1-0.1,0.2-0.2c0.2-0.4-0.1-0.3,0-0.7c0.1-0.4,0.2-0.4,0.3-0.4c0.1,0,0.2-0.1,0.3-0.1
			c0,0,0,0,0,0c0,0,0,0,0,0c0,0,0,0,0,0c0.1,0,0.2-0.1,0.3-0.2c0-0.1-0.1,0-0.1-0.3c0.2,0,0.4-0.1,0.6-0.1c-0.1,0-0.3-0.1-0.4-0.1
			c-0.2-0.1-0.1-0.2-0.4-0.4c0.2,0,0.3,0,0.5,0c0,0.1,0,0.2,0,0.4c0,0,0.1,0,0.1,0c0.1-0.4,0.2-0.3,0.2-0.6c0.2-0.1,0.2,0,0.2-0.3
			c-0.2,0.1-0.1,0-0.2,0.1c0-0.1,0-0.2,0-0.3c-0.1,0-0.2,0-0.2,0c0.2-0.1,0.5-0.3,0.7-0.4c0,0,0,0,0,0c0.5-0.2,1-0.4,1.6-0.6
			c-1.3-0.3-0.7,0.2-1.9-0.2c-0.1,0.1-0.2,0.2-0.3,0.3c0-0.1,0-0.3,0-0.4c-1-0.1-1-0.2-2.3-0.2c0,0,0,0-0.1,0c-0.7,0-3,0.1-3.6,0.3
			c-0.5,0.2,0.4-0.2-0.1,0.1c-0.5,0.2-0.3,0-0.9,0.2c-0.2,0-0.5,0-0.7,0.1c-0.9-0.1-1.2,0.4-1.8,0.1c-0.2,0-0.4-0.1-0.5-0.1
			c-0.1,0-0.4,0-0.6,0c-1.1,0.1-2.3,0.1-3.4,0.4c-1.1,0.4,0,0.1-1.1,0.2c-0.6,0.2-1.1,0.3-1.7,0.5c-0.2,0.1-0.1,0,0.1,0.4
			c-0.9,0.1,0.5-0.8-2.2,0.5c0,0.3,0,0,0.1,0.2c0.1,0.2,0.2,0.2,0.5,0.3c0,0,0,0,0,0c0,0.1-0.1,0-0.2,0.2c0,0.1,0,0.1,0,0.2
			c-0.4,0.1-0.5,0.1-0.9,0c0.2,0,0.3-0.1,0.5-0.1c-0.1-0.2,0-0.1-0.2-0.2c-0.1-0.2-0.3-0.3-0.5-0.2c-0.1,0.2-0.3,0.4-0.4,0.5
			c0.2,0,0.3,0.1,0.5,0.1c-0.8,0.1-0.8,0-0.8,0.3c0,0.3,0.5,0.2-0.5,0.4c0.2-0.2,0.1,0,0.2-0.4c-0.5,0-1.1,0.1-1.6,0.3
			c-0.1-0.4,0.1,0.1,0.1-0.2c-0.1-0.1-0.2-0.1-0.3-0.1c-0.2,0.6,0.2-0.2-0.3,0.8c0.3,0.1,0.2,0,0.5,0.1c0.4,0.1,0.7-0.1,1.1-0.3
			c0,0.1,0.1,0.3,0,0.4c-0.2,0.4,0-0.2-0.7,0.8c-0.1,0.2-0.2,0.3-0.4,0.4c0.1-0.2,0.2-0.3,0.4-0.5c0.5-0.9-0.8-0.2-0.8-0.2
			c-0.1,0.2-0.2,0.3-0.3,0.5c-0.5,0-0.1-0.3-0.8,0.3c0.4,0.1,0.3,0.1,0.5,0.4c0.4-0.1,0.3-0.1,0.7-0.2c-0.1,0.1-0.1,0.2-0.2,0.3
			c0,0,0,0,0,0c-0.1,0.2-0.2,0.3-0.3,0.5c-0.4-0.1,0.1-0.1-0.3-0.1c-0.5,0,0,0.2-1.1,0.4c0.1-0.1,0.1-0.3,0.2-0.4
			c-0.3,0-0.2,0-0.6-0.2c0.4-0.2,0.1-0.2,0.5-0.6c0.3-0.4,0,0.1,0.6-0.6c-0.2-0.1-0.3-0.1-0.7,0.2c-0.3,0.2-0.5,0.4-0.8,0.6
			c-0.2-0.1-0.4-0.1-0.5-0.1c-0.1,0.3,0.1,0.2-0.3,0.1c-0.4,0-0.6-0.1-0.8-0.4c-0.6,0.1-1.7,0.1-2,0.5c-0.2,0.2,0.1,0-0.3,0.3
			c-0.7,0.5-0.4,0.2-1.2,0.9c0.1,0.1,0.2,0.1,0.3,0.2c0.6-0.2,1-0.4,1.5-0.7c-0.3,0.7-0.1,0.1-0.2,0.6c0,0.1,0,0-0.1,0.2
			c-0.2,0.3-0.1,0.1-0.1,0.4c-0.5,0.1-0.5,0.1-1,0c0,0-0.1,0-0.1,0c-0.4,0-0.5,0.1-0.8,0.2c0-0.1,0-0.2,0.1-0.2
			c-0.3,0.2-0.5,0.3-0.8,0.5c0-0.1,0-0.3,0-0.5c-0.3,0.2-0.1,0.2-0.4,0.3c-0.4,0.2,0-0.1-1,0.3c-1,0.5-0.7,0.3-0.8,0.3
			c-3.7,4.4-6.2,9.6-7.3,14.9l0.3,0.1c0,0.1-0.1,0.2-0.1,0.3c0,0-0.1,0.1-0.1,0.1c0.1,0,0.1,0,0.2,0c-0.1-0.2,0-0.1-0.1-0.2
			c0,0,0.1,0,0.1-0.1c0.1-0.1,0-0.1,0.2,0c0.2,0.1,0,1.1,0.2,1.4c0.1,0.2,0.2,0.3,0.4,0.5c-0.1,0.1-0.1,0.1-0.2,0.2
			c-0.4-0.1,0.1,0-0.1-0.1c0,0,0.2-0.1-0.1,0c-0.1,0-0.1,0.3,0.3,0.6c0.2,0.1,0.2,0,0.4,0.1c0.2,0.1,0,0.5,0,0.7
			c0.1,0,0.2,0.1,0.2,0.1c0.3,0.1,0.3,0.4,0.5,0.6c0.1,0,0.3-0.1,0.4-0.2c0-0.2,0-0.2-0.1-0.4c0-0.2-0.1-0.1-0.3-0.2
			c0.2-0.5-0.3-1-0.4-1.4c0-0.2,0-0.4,0-0.5c-0.2-0.1-0.4,0-0.4-0.3c0-0.2,0-0.5,0.2-0.5c0.5,0,0.2,0.7,0.2,1
			c0.1,0.1,0.2,0.1,0.3,0.2c0.1,0.2,0.2,0.3,0.4,0.4c0.2,0.2,0.2,0.3,0.2,0.7c0.5,0.2,0.2,0,0.5,0.4c0.3,0.4-0.3-0.3,0.1,0.1
			c0.3,0.3,0.7,0.8,0.5,1.3c-0.2,0.4-0.1,0.6,0.3,0.8c0.3,0.2,0.1,0.2,0.5,0.4c0.5,0.2,1.2,0.6,1.9,0.9c0.8,0.3,1.1-0.5,1.6,0.2
			c0.1,0.1,0.1,0.2,0.3,0.3c0.1,0.1,0.2,0.2,0.2,0.2c0.3,0.2,0.4,0.1,0.7,0.2c1.4,0.5,0.6,0.3,1.5,1c0,0.2,0,0.5,0,0.7
			c0.1,0,0.2,0.1,0.3,0.1c0.2,0,0.1-0.1,0.3,0.1c0.5,0.3-0.2,0.4,1,0.6c0,0.1,0,0.3-0.1,0.4c0,0,0,0,0,0c0,0,0.1,0,0.1-0.1
			c0.2-0.1,0.2,0.1,0.6,0c0-0.6-0.1-0.4,0.4-0.7c0.1,0.3-0.1,0.1,0.1,0.3c0,0,0,0,0.1,0.1c0,0,0.1,0.1,0.1,0.1
			c0.1,0.1,0.1,0.2,0.2,0.3c0.2,0.3,0.3,1.6-0.1,1.9c-0.1,0.1-0.2,0.1-0.2,0.2c0,0,0,0.1-0.1,0.1c0,0,0,0.2-0.3,0.4
			c-0.2,0.1-0.2,0-0.3,0.3c-0.1,0.2-0.1,0.4-0.2,0.6c-0.1,0.3,0-0.2,0,0.1c0,0.2,0,0.4-0.1,0.6c0.1,0.1,0.2,0.2,0.3,0.2c0,0,0,0,0,0
			c0,0,0,0.1-0.1,0.1c0,0,0,0,0,0c-0.1,0.1-0.1,0.2-0.2,0.3c0,0,0,0,0,0.1c0,0,0,0,0,0c0,0.2,0.1,0.8,0.3,1c0.6,0.5,0.9,1.4,1.3,2.2
			c0.1,0.2,0.2,0.4,0.3,0.5c0.1,0.1,0.3,0.4,0.3,0.5c0.1,0.4-0.1,0.1,0.2,0.6c0.6,0.7,1.4,1,1.9,1.6c0.1,0.1,0.1,0.1,0.2,0.2
			c0.3,0.3,0.4,0.6,0.4,1c0.1,0.7,0,1,0,1.5c0,0.4,0.1,0.9,0.1,1.5c0,0.3,0,0.5,0,0.8c-0.1,0.6,0,0.2,0.1,0.7c0,0.4-0.1,0.1,0,0.6
			c0.1,0.3,0.2,0.4,0.2,0.7c0.1,0.7,0.1,1.4-0.1,2c0,0.2-0.2-0.1,0.1,0.6c0.1,0.2,0.2,0.5,0.2,0.6c0,0.3,0,0.3,0.1,1
			c0.1,0.3,0.1,0.7,0.1,1c0.2,0,0.3-0.1,0.5-0.1c0-0.2-0.1-0.4-0.1-0.7c0.2,0.3,0.2,0.5,0.2,1c-0.2-0.3,0.1-0.1-0.4-0.3
			C-392.4,392.2-392.4,392-392.5,392.3L-392.5,392.3z M-392.8,363.4C-392.8,363.6-392.7,363.4-392.8,363.4L-392.8,363.4
			C-392.8,363.4-392.8,363.2-392.8,363.4z M-356.6,354.4C-356.6,354.4-356.5,354.4-356.6,354.4c0.1,0,0.2,0.2,0.1,0
			C-356.5,354.4-356.6,354.2-356.6,354.4z M-391.4,345.3c0,0.1,0.2,0.2,0.1,0C-391.3,345.2-391.1,345.3-391.4,345.3
			C-391.4,345.3-391.4,345.2-391.4,345.3z M-395.6,361c0,0.1,0.2,0.2,0.1,0C-395.5,360.8-395.3,361-395.6,361
			C-395.6,361-395.6,360.9-395.6,361z M-397.9,362.9c0,0.1,0.2,0.2,0.1,0C-397.9,362.8-397.6,362.9-397.9,362.9
			C-397.9,362.9-397.9,362.8-397.9,362.9z M-361.9,354.1c0,0.1,0.2,0.2,0.1,0C-361.8,353.9-361.6,354.1-361.9,354.1
			C-361.9,354-361.9,353.9-361.9,354.1z M-393.9,366c0,0.1,0.2,0.2,0.1,0C-393.8,365.8-393.6,366-393.9,366
			C-393.9,366-393.9,365.8-393.9,366z M-362.2,344.2c0,0.1,0.2,0.2,0.1,0C-362.2,344-361.9,344.2-362.2,344.2
			C-362.2,344.2-362.2,344-362.2,344.2z M-392.1,366.8C-392,366.9-391.8,366.7-392.1,366.8C-392,366.7-392.2,366.7-392.1,366.8z
			 M-409.4,363.5c0,0.1,0.2,0.1,0.1,0C-409.4,363.4-409.5,363.3-409.4,363.5z M-353,339.8c0.1,0.2,0.1,0.1,0.1,0.1L-353,339.8z
			 M-352.8,339.9c0,0,0.1,0.2,0.2,0.5c0.1,0.1,0.1,0.3,0.2,0.4c-0.2-0.1-0.4-0.1-0.5-0.2c-0.3,0.2-0.1,0.2-0.5,0.2
			c0.3-0.4,0.2-0.6-0.2-0.8c-0.2-0.1-0.3-0.1-0.5-0.2c-1.1-0.5-0.4-0.2-1.5-0.6c-0.1,0-0.1,0-0.2-0.1c0,0,0,0-0.1,0
			c-0.3-0.2-0.1-0.1-0.7-0.1c0,0,0,0,0-0.1c0-0.1,0.3-0.2-0.8-0.5c-0.5,0-0.9,0-1.3,0c-0.6,0-0.3,0.2-0.7,0.2c-0.1,0-0.1,0-0.3-0.1
			c-0.4-0.1-0.8,0.2-1.1,0.5c0-0.1,0-0.1,0-0.2c-0.6,0.2-0.4,0.3-1,0.5c0,0.3-0.2,0.3,0.5,0.1c0,0.6-0.6,0.5-0.8,1
			c-0.1,0.2,0.2,0.1-0.2,0.3c-0.3,0.1-0.3,0.3-0.5,0.6c-0.4-0.1-0.2-0.3-0.5,0.1c-0.6,0.5-1.2,0.3-0.9,1.8c0,0.1,0.1,0.2,0.1,0.3
			c0.3,0.5,0.8,0.4,1.2,0.2c0.2-0.1,0.3-0.2,0.5-0.3c0.2,0.2,0.1,0.3,0.3,0.6c0.1,0.2,0.2,0.4,0.3,0.6c-0.2,0.1-0.4,0.2-0.5,0.2
			c0.1-0.4,0-0.5-0.1-1c-0.1,0-0.2,0.1-0.3,0.1c0,0,0,0,0,0c-0.1,0-0.1,0-0.2,0.1c-0.3,0.1-0.4,0-0.4,0.5c0,0.1,0,0.2,0,0.3
			c0.1,0.4,0.1,0.2,0.1,0.8c-0.4,0.2-1.1-0.1-1.3,0.4c-0.2,0.5-0.2,0.7-1,0.9c0-0.1-0.1-0.2-0.1-0.3c0.1-0.2,0.4-0.3,0.2-0.5
			c-0.3-0.5-0.2,0.2-0.5-0.5c-0.3-0.7-0.2-0.3-0.4-0.6c0,0,0,0,0-0.1c0,0,0,0,0-0.1c-0.1-0.3,0-0.2-0.4-0.4c0.1-0.3,0.2-0.5,0.4-0.8
			c-0.2,0-0.4-0.1-0.6-0.1c0.1-0.2,0.3-0.5,0.5-0.7c-0.4,0-0.2,0-0.4,0.1c-0.3,0.2,0,0.1-0.3,0.2c-0.2,0-0.1-0.2-0.5,0.5
			c-0.1-0.2,0-0.2-0.1-0.4c0-0.1,0.1,0,0-0.1c-0.2-0.1-0.4,0.4-0.5,0.8c0.2-0.1,0.2-0.2,0.3-0.4c0,0,0,0.2,0,0.2c0,0,0,0,0,0.1
			c0,0.3-0.1,0.2,0.1,0.5c-0.1,0.1-0.1,0.2-0.2,0.3c-0.2-0.1-0.4-0.1-0.6,0c-0.2,0.1-0.3,0.2-0.2,0.5c-0.2,0-0.4,0-0.5,0
			c0,0.1,0,0.2,0,0.3c0,0.1,0-0.2,0,0.1c0,0,0,0,0,0c0,0,0,0,0,0c0,0.1,0.1,0.1,0.1,0.2c-0.1,0.1-0.3,0.2-0.4,0.3
			c0.1,0.7,0.3,0.5,1.5,0.1c0.2-1.1,0.1-0.9,0.5-1.2c0,0.1,0,0.2,0,0.3c0.1,0,0.1,0,0.2,0c0-0.1,0.1-0.2,0.2-0.3
			c0,0.2,0.1,0.4,0.1,0.6c-0.2,0-0.4,0-0.5,0c0,0,0,0.3,0,0.3c0.1,0.3,0.3,0.1,0,0.3c-0.1,0-0.2,0-0.3,0.1c0.1,0.2,0.3,0.3,0.4,0.5
			c-0.1,0-0.1,0-0.1,0.1c-0.2,0.2-0.3,0.3-0.5,0.5c0.2,0,0.4,0,0.6-0.1c0,0,0.1,0,0.1,0c0,0,0,0,0.1,0c0.3-0.1,0.1-0.1,0.4-0.1
			c0.3,0,0.4,0,0.7-0.1c0.6,0,0.2,0,0.6-0.2c-0.4,0.9-0.1,0.2-0.6,0.8c-0.7,0,0.1-0.2-0.9-0.1c0,0.2,0.1,0.2,0.3,0.4
			c-0.6,0-0.1-0.2-1.1,0c0,0.1,0,0.3,0,0.4c0.2,0.1,0.5,0.1,0.7,0.2c0.2,0.1,0.1,0.2,0.3,0.4c0,0,0.1,0.1,0.1,0.1
			c0.2,0.4,0,0.9-0.1,1.4c-0.3,0-1.9-0.3-2.1-0.2c-0.3,0.1-0.1,0.1-0.6,0.3c0,0.5,0.1,0.1,0.1,0.5c0,1-0.3,1.3-0.3,1.6
			c0,0.4,0.2-0.1,0.2,1c0.3,0,0.6,0,0.9,0c0.1,0.5,0.4,0.4,0,1.2c-0.2,0.5-0.4,0.4-0.8,0.7c-0.2,0.2-0.3,0.3-0.4,0.5
			c-0.2,0.5-0.2,0.3-0.2,0.8c0.1,0.8-1,1.2-1.2,1.3c-0.3,0.2-0.1,0.3-0.5,0.7c0,0-0.1,0.1-0.1,0.1c-0.3,0.3-0.2,0.5-0.4,0.8
			c-0.1,0.3-0.3,0.2-0.5,0.7c-0.3,0.8-0.7,0.9-0.1,1.5c-0.1,0.5-0.2,0.2-0.1,0.7c0.1,0.5,0,1.1-0.2,1.6c-0.1,0.2-0.2,0.3-0.4,0.6
			c0.1,0.1,0.2,0.1,0.3,0.2c0,0.2,0,0.3,0,0.5c-0.1,0.8,0.2,0.1,0.2,1.1c0.4,0,0.2-0.2,0.9,0.6c0.1,0.2,0.1,0.1,0.1,0.2
			c0.2,0.4,0.2,0.8,0.3,1c0,0,0,0,0,0c0.1,0.1,0.3,0.2,0.4,0.2c0.1,0.1,0.1,0.1,0.2,0.2c0,0,0.1,0.1,0.1,0.1c0.1,0.1,0,0,0.1,0.1
			c0.5,0.4,0.9,1.1,1.4,0.8c1.5-0.9,1.3,0.2,2.5-0.4c0.9-0.4,1-0.5,2-0.5c0.3,0.5,0.2,0.3,0.3,0.8c0,0.1,0.1,0.2,0.1,0.3
			c0.4,0,0.5,0,0.7-0.1c0.1,0,0.3-0.1,0.3-0.1c0.2,0,0.1,0,0.2,0.2c-0.2,0.2-0.2,0.1-0.2,0.4c0.1,0,0.1,0,0.2,0
			c0-0.1,0.1-0.2,0.1-0.3c0.5,0.1,0.1,1.7,0,2.1c-0.1,0-0.2,0-0.2,0c0.1,0.2,0.2,0.5,0.3,0.8c0,0,0,0,0,0.1c0.3,0.5,0.7,0.9,1,1.4
			c0.1,0.2,0.1,0.4,0.4,1.1c0.4,1.1-0.1,0.6,0.3,1.6c0.2,0.5,0.1,0.7-0.2,1.1c-0.3,0.4-0.2,0.6-0.4,1.1c-0.1,0.6-0.1,0.6-0.2,1.2
			c0,0.3,0.6,1.6,0.8,2c0.3,0.6,0.3,0.3,0.3,1.1c0,0.5,0,0.3,0.1,0.6c0.1,0.2,0,0.4,0.1,0.7c0,0.3,0.2,0.5,0.3,0.8c0,0,0,0,0,0
			c0.1,0.2-0.1-0.1,0.1,0.1c0.4,0.5,0.3,0.3,0.5,1c0.1,0.3,0.4,0.7,0.4,1c-0.1,0.5-0.2-0.2-0.1,0.4c0,0.2,0.1,0.4,0.1,0.7
			c0.7,0.3,0.4,0.2,0.9,0c0.3-0.1,0.5-0.2,0.8-0.2c1-0.1,1.4,0,2.2-0.9c0.2-0.2,0.3-0.4,0.5-0.5c0.1-0.1,0,0,0.2-0.2
			c0.3-0.4,0.4-0.8,0.7-1.1c0,0,0,0,0,0c0.4-0.4,0.3-1.1,0.4-1.6c0.3-0.2,0.3-0.2,0.7-0.4c0.3-0.2,0.4-0.2,0.4-0.7
			c0.1-0.7-0.1-1.1-0.2-1.7c0.3-0.5,0.4-0.3,0.9-1c0.4-0.7,0.9-0.3,1.4-1.3c0.2-0.3,0.1-0.3,0.1-0.8c0-0.6,0-1.1,0-1.7
			c0,0-0.1-0.1-0.2-0.1c-0.2-0.2-0.2-0.6-0.3-0.8c0-0.1,0-0.4,0-0.5c-0.2-0.8-0.5,0,0.2-1.6c0.2-0.6,0.6-1,1-1.5
			c0.1-0.2,0.2-0.3,0.4-0.5c0.8-0.9,0.9-0.8,1.2-1.1c0.4-0.4,0.7-0.9,1-1.5c0.2-0.4,0.3-0.8,0.5-1.2c0.2-0.4,0.6-0.8,0.6-1.2
			c-0.3-0.1-0.2-0.1-0.2-0.7c-0.3,0-0.7,0.3-1,0.3c-0.1,0-0.2,0.1-0.4,0.1c-0.3,0.1-0.3,0.2-0.6,0.2c-0.3,0-0.6,0.1-0.8,0.1
			c-0.1-0.2-0.3-0.4-0.4-0.6c0-0.1,0.1-0.2,0.2-0.3c0.3,0,0.5,0,0.6-0.1c0.3-0.1,0.7-0.3,1-0.4c0.1-0.1,0,0,0.1-0.1
			c0.1,0,0.1,0,0.3-0.1c0.1-0.1,0.1-0.1,0.3-0.2c0.3-0.2,0.7-0.2,1-0.4c0.4-0.3-0.3-0.3,0.5-0.6c0.9-0.4,0.8-0.2,1.7-1
			c0-0.2,0-0.4,0.1-0.7c0.3-0.1,0.5-0.7,0.6-1c-0.2-0.1-0.3-0.3-0.5-0.5c-0.3-0.3-0.8-0.1-0.9-0.6c0-0.3-0.1-0.5-0.1-0.8
			c-0.1,0-0.2,0-0.2,0c0,0.5-0.5,1-1,0.9c-0.3,0-0.3,0-0.5,0.1c0,0,0-0.1,0-0.1c0-0.1,0-0.1-0.1-0.2c-0.1-0.5,0-0.3-0.3-0.8
			c-0.1,0.1-0.2,0.3-0.2,0.4c0-0.2,0-0.2,0-0.3c0-0.5-0.6-0.8-0.8-1.2c-0.1-0.3,0-0.3,0.1-0.6c0.1-0.2,0-0.1,0.1-0.1
			c0,0,0.1,0,0.2,0c0.3,0.1,0.3,0.3,0.4,0.6c0.2,0.4,0.1,0.4,0.5,0.6c1.2,0.6,0.3,0.7,1.8,0.4c0.1,0.2,0.2,0.4,0.2,0.7
			c0.4,0.1,1.3,0.4,1.7,0.4c0.2,0,0.3,0,0.5,0C-343.3,352.9-346.8,345.6-352.8,339.9L-352.8,339.9z M-357.2,354.2
			c-0.2,0.1-0.1-0.1-0.2,0.2C-357.1,354.3-357.2,354.4-357.2,354.2c0-0.1,0.1-0.2,0.1-0.3c0.1,0.1,0.2,0.2,0.2,0.4
			c0-0.1,0.1-0.1,0.1-0.2c-0.3-0.1,0,0.1-0.2-0.2c-0.1-0.2,0-0.2-0.3-0.3c-0.1-0.1-0.2-0.1,0-0.5c-0.5,0.1-0.1,0.1-0.4-0.2
			c0,0-0.1,0-0.1-0.1c-0.2-0.2-0.1,0.2-0.2-0.2c0.1,0.1,0.3,0.1,0.4,0c0.2-0.1,0.1-0.2,0.2-0.4c0.3,0.2,0.2,0.3,0,0.5
			c0.6,0,0.4-0.1,0.4,0.2c0,0,0,0.1,0,0.1c0,0,0,0.1,0,0.1c0,0.1,0,0-0.1,0.2c0.1,0.1,0.3,0.1,0.4,0.2c-0.1,0.1-0.2,0.2-0.2,0.3
			c0.1,0,0.3,0,0.5-0.1c0,0,0,0,0,0.1c0,0.1-0.1,0.2-0.1,0.4c0.1,0.2,0.2,0.3,0.3,0.4c0.1-0.1,0.2-0.3,0.3-0.4
			c0.1,0.1,0.1,0,0.2,0.1c0.1,0.1,0.4,0.4,0.7-0.1c0.9,0.6,0.8,0.5,1.4,0.1c0.1-0.1,0.3-0.1,0.5-0.1c0,1.5,0.1,1-0.5,2.6
			c-0.4,0-1-0.2-1-0.2c-0.3,0.1-0.6,0.2-0.8,0.4c-0.1,0-0.8-0.4-1.1-0.4c-0.2,0-0.2,0-0.5-0.1c-0.1-0.1-0.5-0.2-0.7-0.3
			c-0.3-0.2-0.8-0.4-1-0.2c-0.1,0.4-0.2,0.7-0.4,1.1c-0.5,0.1-0.4-0.1-0.8-0.3c-0.2-0.1-0.4-0.1-0.5-0.2c-0.4-0.2-0.1-0.1-0.3-0.4
			c-0.3-0.4-1-0.3-1.4-0.6c-0.2-0.1-0.3-0.2-0.5-0.3c0.1-0.1,0.3-0.2,0.5-0.4c0-0.1-0.1-0.3-0.1-0.4c-0.1-0.3-0.3-0.2-0.1-0.5
			c0,0,0.1-0.1,0.2-0.1c0-0.1,0-0.2,0-0.3c-0.6,0.2-0.1-0.2-0.7-0.1c-0.2,0-0.2,0.1-0.4,0.2c-0.2,0-0.2,0-0.4,0
			c-0.8,0.1-1.6,0.1-2.4,0.2c-0.2,0.1-0.5,0.2-0.7,0.4c-0.5,0.4-0.6,0.2-1.5,0.1c0-0.1,0-0.3,0-0.4c0.4,0,0.1-0.1,0.6-0.2
			c0.6,0,0.5,0,0.9-0.4c0.2-0.2,0.4-0.5,0.6-0.7c-0.1-0.1-0.2-0.2-0.2-0.4c0.2-0.1,0.1-0.1,0.3-0.3c0.3-0.4,0.7-0.5,1.1-0.7
			c0-0.7-0.2-1,0.9-0.5c0.3-0.2,0.7-0.5,1-0.7c0.5,0.3,0.4,0.2,0.4,0.9c0.4-0.1,0.3-0.1,0.7,0.3c0.4,0.4,0.8,0.6,1.1,0.9
			c0.2,0.2,0.3,0.3,0.4,0.5c-0.4,0.4-0.9,0.3-1.3,0.3c0,0.1,0,0.2,0,0.3c0.3,0,0.8,0.4,1.1,0.5c0-0.2,0-0.5,0-0.7
			c0.4,0,0.4-0.2,0.7-0.4c-0.1-0.2-0.1-0.5-0.2-0.7c0.1-0.1,0.4,0.1,0.6,0.2c0-0.7-0.5-0.4-0.8-0.8c0-0.1-0.1-0.2-0.1-0.4
			c-0.6,0.1-0.6-0.2-1.3-1.1c0.1-0.2,0.1-0.4,0.2-0.6c0.3,0.2,0,0.1,0.2,0.3c0.2,0.2,0.3,0.2,0.4,0.4c0,0,0,0,0,0
			c0.1,0.1,0.8,0.5,1,0.7c0.1,0.1,0.2,0.1,0.3,0.2c0.1,0.1,0.2,0.2,0.3,0.3c0,0.4-0.1,0.6,0.1,0.9c0.1,0.1,0.3,0.3,0.4,0.4
			c0,0.3-0.2,0.5,0.1,0.7c0.1,0.1,0.2,0.1,0.3,0.3c0.1,0.2,0.4,0.4,0.4,0.4c0.1,0.1-0.1,0.2,0.2,0c0.2-0.1,0-0.2,0.1-0.5
			c0-0.2,0,0.1,0.1-0.2c0,0,0,0,0.1,0C-357.4,353.9-357.3,354.1-357.2,354.2z M-393.2,366.3c0.2-0.2,0.2-0.1,0-0.2
			C-393.2,366.2-393.2,366.2-393.2,366.3z M-356.2,355c0,0,0-0.1,0-0.2c0-0.1,0-0.1-0.1-0.2C-356.3,355.1-356.4,354.8-356.2,355z
			 M-407.6,362.4c0.1,0,0.2,0,0.2,0c-0.1-0.2,0-0.1-0.2-0.1C-407.6,362.3-407.6,362.3-407.6,362.4z M-392.6,347.5c0,0,0.1,0,0.2,0
			c0-0.2,0-0.1-0.2-0.2C-392.6,347.3-392.6,347.4-392.6,347.5z M-391.2,338.6c0.2-0.1,0.1,0,0.2-0.2c-0.1,0-0.2,0-0.2,0
			C-391.2,338.5-391.2,338.5-391.2,338.6z M-388.2,340.6c0.2-0.1,0.1,0,0.2-0.2c-0.1,0-0.2,0-0.2,0
			C-388.2,340.4-388.2,340.5-388.2,340.6z M-397.5,362.9c0.1,0,0.1,0,0.2,0c0-0.1,0-0.1,0-0.2C-397.4,362.7-397.4,362.7-397.5,362.9
			z M-394.9,362c0,0.1,0,0.2,0,0.2c0.1-0.1,0.3-0.3,0.4-0.4c-0.4,0.2,0.3-0.2-0.2,0.1C-394.8,362-394.5,362-394.9,362z
			 M-369.6,335.4c0,0.1,0,0.1,0,0.2c-0.1,0-0.2,0-0.2,0C-369.7,335.4-369.8,335.5-369.6,335.4z M-393.6,340.5c0.1,0,0.1,0,0.2,0
			c0-0.1,0-0.1,0-0.2c-0.1,0-0.2,0-0.2,0C-393.6,340.4-393.6,340.4-393.6,340.5z M-394.6,361.6c0.1,0,0.1,0,0.2,0c0-0.1,0-0.1,0-0.2
			c-0.1,0-0.2,0-0.2,0C-394.6,361.5-394.6,361.6-394.6,361.6z M-395,360.9c0,0,0.1,0,0.2,0c0-0.1,0-0.2,0-0.2c-0.1,0-0.1,0-0.2,0
			C-395,360.8-395,360.9-395,360.9z M-411.1,359.7L-411.1,359.7c0.1-0.1,0.1-0.1,0.1-0.2l0,0L-411.1,359.7z M-391,344.5
			c0.3-0.2,0.1,0,0.3-0.3C-390.9,344.2-391,344.2-391,344.5z M-387,343.7c0.1,0,0.2,0,0.2,0c0-0.1,0-0.2,0-0.2
			C-387.1,343.7-387,343.4-387,343.7z M-393.3,366.3c-0.1-0.3,0-0.2-0.3-0.2C-393.4,366.3-393.5,366.3-393.3,366.3z M-361.1,345.2
			c0.2,0.3,0,0.1,0.3,0.2C-360.8,345.1-360.8,345.1-361.1,345.2c0-0.1,0-0.2,0-0.3c0.1,0,0.3-0.1,0.4-0.1c0.3-0.1,0.2-0.1,0.3-0.2
			c0.3-0.3,0.1-0.4,0-1c0.2,0,0.4,0,0.5-0.1c0-0.3,0-0.2,0.1-0.5c-0.3-0.3,0-0.1-0.6-0.5c0-0.6,0.1-0.6,0.2-0.7
			c0.2-0.3,0.7-0.3,0.9-0.5c0.1-0.2,0.1-0.2,0.1-0.3c0-0.2,0-0.1,0.2-0.4c0.3,0.1,0.6,0.1,0.9,0.2c-0.1,0.1-0.2,0.2-0.2,0.3
			c-0.4,0.5-0.5,0.4-1,0.5c0.1,0.2,0.1,0.1,0.1,0.4c0,0.1,0,0.2,0,0.4c0.1,0.3,0,0.4,0.1,0.8c0.2,0,0.3,0.1,0.5,0.1
			c0.2,0.2,0.7-0.1,0.9-0.1c0.3,0.1,0.6,0.1,0.9,0.2c-0.5,0.3-1.5-0.3-1.5,0.3c-0.1,0-0.2-0.1-0.4-0.1c-0.1,0.1,0,0.1-0.2,0.2
			c0,0.1,0.1,0.2,0.1,0.4c0,0,0,0.1,0,0.1c0,0,0,0,0,0.1c-0.2,0,0-0.1-0.2,0.1c-0.1,0.1-0.1,0.1-0.1,0.2c0,0.1,0,0.2,0,0.3
			c0,0.4,0,0.5-0.6,0.7c0,0,0.1-0.4-0.7-0.1c-0.2,0.1-0.5,0.2-0.7,0.3c-0.1-0.1-0.1-0.2-0.2-0.4c-0.3,0.1-0.6,0.2-0.9,0.3
			c0.1-0.4,0,0.2,0.4-0.6C-361.4,345.2-361.4,345.2-361.1,345.2z M-395.4,360.5c0.1,0.3,0,0.3,0.2,0.4c0-0.2-0.1-0.2-0.1-0.4
			C-395.3,360.5-395.4,360.5-395.4,360.5c0-0.3,0-0.3-0.3-0.4c0.1,0.5,0.2,0,0.1,0.5C-395.5,360.5-395.6,360.6-395.4,360.5z
			 M-387.6,349.4c0,0.1,0,0.2,0,0.3c0.2-0.1,0.1,0,0.3-0.4C-387.4,349.4-387.4,349.4-387.6,349.4z M-387.1,397.9
			c0.1,0,0.3,0,0.4,0.1c0-0.1,0-0.1,0-0.2c-0.1,0-0.3-0.1-0.4-0.1C-387.1,397.8-387.1,397.9-387.1,397.9z M-394.4,361.7
			c0,0.1,0,0.1,0,0.2c0.1,0,0.3,0,0.4,0C-394,361.6-394.1,361.6-394.4,361.7z M-395.1,361.4c0-0.2,0-0.3-0.1-0.5c-0.1,0-0.1,0-0.2,0
			C-395.4,361.3-395.4,361.3-395.1,361.4z M-389.4,336.4c0.4-0.1,0.3,0,0.4-0.3C-389.2,336.2-389.4,336.1-389.4,336.4z M-395,361.7
			c0.3-0.1,0.2-0.1,0.3-0.4c-0.3,0-0.1-0.1-0.3,0.1C-395,361.4-395,361.6-395,361.7z M-389.5,342.7c0.1,0,0.3,0,0.4,0
			c0-0.1,0-0.2,0-0.2C-389.3,342.5-389.4,342.5-389.5,342.7z M-398.5,361.8c0,0.1,0,0.2,0,0.3c0.3,0,0.3,0,0.3-0.3
			C-398.3,361.8-398.4,361.8-398.5,361.8c0.2-0.1,0.3-0.2,0.5-0.2c0.1,0.4-0.1,0,0.8,0.4c0.9,0.3,0,0.3,0.9,0.4
			c-0.1,0.1-0.2,0.3-0.2,0.4c0.4,0,1.2-0.1,1.6-0.2c-0.2-0.3-0.1-0.2-0.5-0.4c-1-0.6-0.7-0.5-0.9-0.7c-0.3-0.2-0.1,0-0.5-0.1
			c-1.1-0.5-1.4,0-2.2,0.6C-398.7,361.9-398.9,361.8-398.5,361.8z M-366,343c0-0.4,0.1-0.1,0.2-0.5c-0.2,0-0.3,0-0.4,0.2
			C-366.3,342.9-366.1,342.9-366,343z M-367.6,342.2c0-0.2,0-0.3,0.1-0.5c-0.3,0-0.4-0.1-0.3,0.2c0,0.1,0,0.1,0.1,0.2
			C-367.7,342.3-367.9,342.2-367.6,342.2z M-390.4,343.4c0.1,0.1,0.2,0.1,0.2,0.2c0.1-0.4,0-0.2,0.3-0.4c-0.1-0.1-0.1-0.1-0.2-0.2
			C-390.2,343.1-390.3,343.2-390.4,343.4z M-396.8,363.3c0.3,0.1,0.6,0.2,0.9,0.3C-396.2,363.1-396.6,363.3-396.8,363.3z
			 M-365.4,352.7c0.2,0.1,0.1,0.1,0.3,0.1c0.1,0,0.2,0,0.2-0.2C-364.9,352.1-365.3,352.6-365.4,352.7z M-359.7,344.5
			c0.1-0.2,0.1-0.1,0.2-0.6c-0.3,0-0.5,0.1-0.4,0.4c0,0,0,0,0,0.1C-359.9,344.6-360.1,344.5-359.7,344.5z M-396.5,359.6
			c0.1,0.3,0.1,0.3,0.6,0c0,0.1,0,0.3-0.1,0.4c0.1,0,0.1,0,0.2,0c0-0.2,0-0.4-0.1-0.5C-396.1,359.5-396.1,359.6-396.5,359.6z
			 M-391.4,343.5c0.2-0.1,0.3-0.1,0.5-0.2c0.2-0.1,0.3-0.1,0.4-0.4C-391,342.9-391.3,343-391.4,343.5z M-391.9,346.2
			c0.2-0.1,0.4-0.2,0.6-0.2c0-0.3-0.1-0.4-0.4-0.4C-391.7,346.1-391.8,345.7-391.9,346.2z M-356.8,354.3
			C-356.8,354.3-356.9,354.3-356.8,354.3C-356.9,354.3-356.8,354.3-356.8,354.3C-356.8,354.3-356.8,354.3-356.8,354.3z
			 M-357.3,353.7c0.2,0.1,0.1-0.1,0.2,0.2c-0.1,0,0,0-0.1,0C-357.3,353.7-357.2,353.8-357.3,353.7
			C-357.3,353.7-357.3,353.7-357.3,353.7z M-396.5,360.5c0,0.1,0,0.1,0,0.2c0.2,0.1,0.1-0.1,0.2,0.4c0.1,0,0.2,0,0.2,0
			c0-0.2,0-0.4,0-0.6c0,0,0.1-0.1,0.2-0.1c-0.2,0-0.3,0-0.5-0.1C-396.4,360.6-396.3,360.4-396.5,360.5z M-392.6,363.6
			c0.4,0,0.4,0,0.9-0.1c0-0.2,0-0.3-0.6-0.3C-392.6,363.2-392.6,363.3-392.6,363.6z M-358.4,344.3c-0.1-0.3,0-0.3,0.4-0.3
			c0.1,0.2,0.1,0.2,0.1,0.5c-0.3,0-0.1,0-0.3-0.1C-358.3,344.3-358.4,344.3-358.4,344.3z M-358.3,343.8
			C-358.4,343.7-358.4,343.8-358.3,343.8C-358.2,343.7-358.3,343.8-358.3,343.8z M-354.4,355.3c0.1,0.2,0.3,0.3,0.5,0.2
			c0.2-0.1,0.1-0.1,0.3-0.3c0-0.1,0.1-0.2,0.1-0.3C-354.2,355.2-354,354.7-354.4,355.3z M-357.6,355.1c0.5,0.3,0.3,0.2,1.1,0.1
			c0-0.1,0-0.2,0-0.3c-0.2,0-0.3,0-0.6-0.1c-0.2,0-0.3-0.1-0.5-0.1C-357.6,354.8-357.6,354.9-357.6,355.1z M-388.5,349.8
			c0,0.1,0,0.1-0.1,0.1C-388.6,349.9-388.6,349.9-388.5,349.8z M-388.3,350.3c0-0.3,0.1,0,0.2,0
			C-388.2,350.3-388.2,350.3-388.3,350.3z M-387.8,350.2c0,0,0.1-0.1,0.2-0.1C-387.7,350.3-387.6,350.3-387.8,350.2z M-391.3,337
			c0.2,0.2,0.1,0.1,0.5,0.3c0.8-0.5-0.2,0.1,1-0.5c-0.9-0.3-1-0.4-1.3-0.1c0,0,0,0,0,0C-391.3,337.1-391.1,336.9-391.3,337z
			 M-394.1,337.8c0,0.1,0,0.1,0,0.2c0.3-0.1,0.4,0.2,1-0.1c0.5-0.2,0.5-0.3,0.8-0.7c-0.4,0.1-0.8,0.1-1.1,0.3c0,0-0.1,0.1-0.1,0.1
			c0,0,0,0-0.1,0c-0.4,0.2,0.3-0.1-0.1,0c-0.3,0.1,0.1,0-0.2,0C-393.9,337.7-394.1,337.8-394.1,337.8z M-363.1,351.2
			c0,0.3,0.1,0.5,0.2,0.8c-0.2,0.1,0,0-0.1,0c-0.1,0-0.1-0.1-0.2-0.1c0,0.3,0,0.7,0,1c0,0.3,0,0.2,0.6,0.1c0-0.9,0.2-0.2-0.1-1
			c0,0,0-0.1,0-0.1c0-0.3,0-0.5,0-0.8C-363,351.1-362.8,351.1-363.1,351.2z M-386.7,340.1c-0.1,0.1-0.1,0.1-0.2,0.2
			C-386.8,340.2-386.7,340.2-386.7,340.1z M-387.8,339.8C-387.7,339.9-387.7,339.9-387.8,339.8
			C-387.8,339.9-387.8,339.9-387.8,339.8z M-387.1,340.2C-387.2,340.3-387.1,340.3-387.1,340.2
			C-387.2,340.1-387.1,340.2-387.1,340.2z M-387.2,340C-387.2,340-387.2,340-387.2,340C-387,340-387,339.9-387.2,340z M-387.3,339.9
			c0,0,0-0.1,0-0.2C-387.1,339.8-387.1,339.7-387.3,339.9z M-387.3,339.7C-387.5,339.6-387.5,339.7-387.3,339.7
			C-387.3,339.7-387.3,339.7-387.3,339.7z M-394.7,363.1C-394.7,363.1-394.7,363.1-394.7,363.1c-0.1,0.1-0.1,0.1-0.1,0.1
			c0,0-0.1,0-0.1,0c-0.3,0.1-0.1-0.1-0.5,0.3c0.2,0.1,0.4,0.1,0.6,0c0.2,0,0.3,0.2,0.7,0.2c0.2-0.6,1.3,0,1.1-0.5
			c0-0.2-0.6-0.5-0.7-0.5c-0.1-0.1-0.2,0-0.3,0c-0.4,0-0.1,0.1-0.7-0.1C-394.9,362.9-394.7,362.7-394.7,363.1z M-372.4,340.5
			C-372.3,340.4-372,340.6-372.4,340.5C-372.3,340.5-372.6,340.6-372.4,340.5z M-372.7,340.8c0.1,0.1,0.2,0.1,0.3,0.2
			c0,0.1,0,0.2,0,0.3c0.4,0,0.9,0.1,1.3,0.1c0.2,0,0.1,0,0.4-0.2c0.2-0.1,0.3-0.1,0.5-0.2c0.5-0.1,0.6-0.2,0.8-0.5
			c-0.1-0.2-0.2-0.3-0.2-0.5c-0.4,0-0.3-0.1-0.6,0c-0.1,0.1-0.2,0.1-0.3,0.2c-0.4,0.1-0.5-0.2-1.1,0.3c0-0.2,0-0.2-0.1-0.4
			c-0.2-0.2-0.7,0.2-0.8,0.3c-0.2,0.3,0,0,0,0.2C-372.5,340.8-372.4,340.4-372.7,340.8C-372.7,340.7-372.7,340.8-372.7,340.8z
			 M-360.2,335C-360.1,334.9-359.9,335.2-360.2,335C-360.1,335.1-360.3,335.2-360.2,335z M-361.1,334.9c-0.4,0-0.8-0.1-1.2-0.1
			c0,0.1,0,0.2,0,0.3c0,0,0,0,0,0.1c0,0.1-0.1,0.1-0.1,0.2c0.3,0.1,0.6,0.1,0.9,0.2c0.1,0.5,0.3,0.5,1,0.6c0.1-0.2,0.3-0.5,0.4-0.7
			c0.5,0.6,0.6,0.7,1.5,0.3c-0.2-0.1-0.3-0.1-0.5-0.2c-0.1-0.1,0,0-0.1-0.1c-0.1-0.1-0.2-0.2-0.3-0.3c0.3,0,0.6,0.1,0.7,0.1
			c-0.3-0.2-0.6-0.4-1-0.6c-0.1,0-0.3,0-0.8,0C-361.3,334.9-360.8,334.9-361.1,334.9z M-394.7,338.3
			C-394.7,338.3-394.7,338.3-394.7,338.3C-394.7,338.3-394.7,338.3-394.7,338.3z M-394.6,338.2
			C-394.6,338.2-394.6,338.2-394.6,338.2C-394.6,338.2-394.6,338.2-394.6,338.2z M-397.1,339.2c0.9-0.1,1.7,0.2,1.7,0.2
			c0.6-0.1,1-0.4,1.5-0.5c0.5-0.1,1.1-0.2,1.6-0.4c-0.2-0.4,0.1,0.2-0.2-0.1c0-0.1,0-0.1,0-0.2c-0.2,0.1-0.3,0.1-0.5,0.2
			c0-0.1,0-0.2,0.1-0.3c-1.3,0.4-0.7,0.4-1.1,0.6c-0.5,0.3,0.2-0.7-0.8-0.5c-0.2,0.1-0.2,0-0.5,0.1c-0.5,0.2-0.9,0.4-1.4,0.6
			C-397.1,339-397,338.9-397.1,339.2z M-367.8,344.9c0.1,0,0-0.2,0.2,0.2c-0.1,0,0.1,0.2-0.1,0C-368,344.7-367.7,345.1-367.8,344.9z
			 M-347.5,378.3c-0.6,0.1-0.2,0.1-0.5,0.7c-0.3,0.5-1.1,0.6-1.3,0.8c-0.1,0.2-0.2,0.4-0.2,0.7c0,0.5,0.2,0.9,0.1,1.3
			c-0.1,0.4-0.5,0.6-0.4,1.1c0.1,0.6,0,0.1,0.1,0.7c0,0.3,0.1,0.4,0.3,0.6c0.4,0.3,0.5,0.1,1.1-0.1c0-0.2,0.9-2.9,1-3.3
			c0.1-0.3,0-0.3,0.2-0.6c0.1-0.2,0.1,0,0.1-0.5c0,0,0,0,0.1,0c0,0,0,0,0,0c0,0,0,0,0,0c0.4-0.3,0-1.3-0.2-1.9c-0.1,0-0.1,0-0.2,0
			C-347.4,378-347.5,377.8-347.5,378.3z M-389.2,396.9C-389.1,396.8-388.9,397.1-389.2,396.9C-389.1,396.9-389.3,397-389.2,396.9z
			 M-389.5,396.6C-389.5,396.6-389.4,396.6-389.5,396.6C-389.4,396.6-389.5,396.6-389.5,396.6z M-389.8,396.5
			C-389.8,396.5-389.8,396.6-389.8,396.5C-389.7,396.6-389.8,396.5-389.8,396.5z M-389.1,396.4C-389,396.3-388.8,396.6-389.1,396.4
			C-389,396.5-389.2,396.5-389.1,396.4z M-391.1,395.7C-391.1,395.6-390.7,395.6-391.1,395.7C-391,395.7-391,395.7-391.1,395.7
			C-391,395.7-391.1,395.8-391.1,395.7z M-392,392.5C-392,392.5-392,392.5-392,392.5C-392,392.5-392,392.5-392,392.5z M-388,388.2
			C-388,388.2-388,388.2-388,388.2C-388,388.2-388,388.2-388,388.2z M-385.8,387.1C-385.8,386.9-385.7,387.1-385.8,387.1
			L-385.8,387.1C-385.8,387.1-385.8,387.3-385.8,387.1z M-394.6,367c0,0,0.1,0,0.2,0c0.1,0.3,0.1,0.3,0,0.5
			C-394.8,367.2-394.6,367.3-394.6,367z M-400.7,365.7C-400.7,365.7-400.7,365.7-400.7,365.7C-400.7,365.7-400.7,365.7-400.7,365.7z
			 M-400,358.5C-400,358.6-400,358.6-400,358.5C-400,358.6-400,358.6-400,358.5z M-400,358.5c0,0,0-0.1,0.1-0.2
			C-400,358.4-400,358.5-400,358.5z M-394.4,355.6C-394.4,355.6-394.3,355.6-394.4,355.6C-394.3,355.6-394.4,355.6-394.4,355.6z
			 M-394.1,354.4C-394.1,354.4-394.1,354.4-394.1,354.4C-394.1,354.4-394.1,354.4-394.1,354.4z M-396,352.8
			C-396,352.8-396,352.8-396,352.8C-396,352.8-396,352.8-396,352.8z M-395.8,352.9c0.4-0.4,0.5-0.3,1-0.5c0,0.1,0,0.1,0,0.2
			C-395.4,352.7-395.2,352.9-395.8,352.9z M-394.7,352.3C-394.6,352.3-394.4,352.4-394.7,352.3
			C-394.6,352.4-394.8,352.5-394.7,352.3z M-393.5,351.9c-0.3,0-0.5,0-0.8,0c0.5-0.2,0.4-0.1,1.1-0.4
			C-393.2,351.8-393.3,351.9-393.5,351.9z M-389.6,351c0-0.1,0-0.2,0.1-0.3c0.2-0.1,0.2-0.1,0.5-0.1
			C-389.3,350.9-389.3,351-389.6,351z M-395.6,351c0.3-0.1,0,0,0.2-0.1c0.1-0.1,0,0,0.1,0c0,0,0,0,0,0c0,0,0,0,0,0
			c1-0.2,0.9,0.3,0.9,0.6c-0.1-0.1-0.3-0.2-0.4-0.4c-0.3,0.6-0.1,0.4-0.6,1.1c0,0,0-0.1,0,0c0-0.1,0-0.1,0-0.2c0,0,0,0,0,0
			c0-0.1,0-0.2,0-0.3c0,0,0,0,0,0c0-0.1,0.1-0.2,0.1-0.3C-395.5,351.1-395.4,351.2-395.6,351z M-397.5,353c0-0.2,0-0.1,0-0.2
			c0.2-0.7,0.4-0.7,0.5-1c0.4-0.7-0.2-0.2,1-0.9c-0.1,0.4-0.4,0.3-0.9,0.9C-397,352.3-396.8,352.9-397.5,353z M-397.7,350.7
			c-0.1,0-0.1,0-0.2,0.1C-397.8,350.7-397.8,350.7-397.7,350.7z M-397.7,350.7c0.4-0.3,0.9-0.4,1.4-0.8c0.3-0.2,0.2-0.2,0.8,0.2
			c-0.3,0.2-0.6,0.4-0.9,0.6c-0.3-0.2-0.2-0.3-0.6-0.2C-397.5,350.8-397.3,350.8-397.7,350.7z M-389.7,349.1
			C-389.7,349.1-389.7,349.1-389.7,349.1C-389.7,349.1-389.7,349.1-389.7,349.1z M-408.4,351.5c0.1,0.1,0.1,0.1,0.2,0.2
			C-408.5,351.7-408.3,351.8-408.4,351.5z M-389.5,349c0.1-0.1-0.2-0.1,0.2-0.1C-389.3,349-389.1,348.9-389.5,349z M-389,348.8
			c-0.1,0-0.1,0-0.2,0.1C-389.1,348.8-389,348.8-389,348.8z M-386.3,342.2C-386.3,342.2-386.3,342.3-386.3,342.2
			C-386.2,342.3-386.3,342.2-386.3,342.2z M-390.8,341.6c0-0.1,0.3-0.1,0.1,0C-390.7,341.6-390.7,341.6-390.8,341.6
			C-390.8,341.6-390.8,341.8-390.8,341.6z M-393.3,341.5C-393.3,341.5-393.2,341.5-393.3,341.5
			C-393.2,341.5-393.3,341.5-393.3,341.5z M-390.6,340.8c0.1,0.2,0.1,0.2-0.2,0.3c0-0.1,0-0.2,0-0.2
			C-390.8,340.9-390.7,340.9-390.6,340.8z M-390.5,340.7C-390.6,340.8-390.6,340.8-390.5,340.7
			C-390.6,340.8-390.6,340.8-390.5,340.7z M-395.5,341.4C-395.5,341.4-395.5,341.4-395.5,341.4
			C-395.5,341.4-395.5,341.4-395.5,341.4z M-391.2,340.5C-391.1,340.4-390.9,340.6-391.2,340.5
			C-391.1,340.5-391.3,340.7-391.2,340.5z M-396.8,342c0,0-0.1-0.1-0.1-0.1c-0.5,0.1-1.1,0.2-1.6,0.4c0.2-0.2,0.4-0.3,0.6-0.5
			c0,0.1,0,0.2,0,0.3c0.4-0.1,0.5-0.2,0.8-0.2C-396.8,341.8-396.4,341.8-396.8,342z M-394.2,341.3c0.2-0.1,0.4-0.1,0.6-0.2
			c-0.1,0.1-0.4,0.4-0.5,0.4c-0.3,0.1,0,0-0.4,0c-0.6,0.1-0.2,0.2-0.9,0c0.3-0.3,0.2-0.2,0.9-0.2c0.1-0.2,0.1-0.3,0.2-0.5
			C-394,341.1-394.1,340.9-394.2,341.3z M-395.8,341.3C-395.8,341.3-395.7,341.3-395.8,341.3C-395.7,341.3-395.8,341.3-395.8,341.3z
			 M-380,339.1c0,0,0.1-0.1,0.1-0.2C-379.9,339-379.9,339.1-380,339.1z M-397.4,341.1c0.2,0,0.1,0,0.3,0
			C-397.3,341.2-397.3,341.2-397.4,341.1z M-372.3,338c0.3,0.2,0.2,0.1,0.4,0.4C-372.3,338.4-372.3,338.4-372.3,338z M-379.8,338.6
			C-379.8,338.6-379.8,338.6-379.8,338.6C-379.8,338.6-379.8,338.6-379.8,338.6z M-380,338.5C-380,338.5-380,338.5-380,338.5
			C-379.9,338.5-380,338.5-380,338.5z M-392.2,339.8c0.1,0,0.2-0.1,0.2-0.1C-392,339.8-392,339.8-392.2,339.8z M-397.8,340.5
			C-397.8,340.5-397.8,340.5-397.8,340.5C-397.8,340.5-397.9,340.5-397.8,340.5z M-386.8,338.5
			C-386.8,338.6-386.8,338.6-386.8,338.5C-386.8,338.6-386.8,338.6-386.8,338.5z M-387,338.6C-387,338.6-387,338.6-387,338.6
			C-387,338.6-387,338.6-387,338.6z M-388.7,339c-0.1,0-0.1-0.2,0-0.1C-388.8,338.9-388.8,338.9-388.7,339
			C-388.7,338.9-388.7,339-388.7,339z M-388.6,338.6C-388.6,338.6-388.6,338.6-388.6,338.6C-388.6,338.6-388.6,338.6-388.6,338.6z
			 M-390.5,338.4c0.2-0.1,0.1-0.1,0.3,0c-0.2,0.2,0.1,0.1-0.2,0.1C-390.7,338.5-390.3,338.5-390.5,338.4z M-388.4,337.5
			c0.6-0.2,0.9-0.3,1.2-0.1C-387.5,337.5-388,337.7-388.4,337.5z M-386,337.4c-0.4,0-0.7-0.1-1.1-0.1c0.2,0,0.7-0.1,0.9-0.1
			C-385.8,337.2-386,337.1-386,337.4z M-391.2,337.8C-391.2,337.8-391.2,337.8-391.2,337.8C-391.2,337.8-391.3,337.8-391.2,337.8z
			 M-383.2,336.2C-383.1,336.1-382.7,336.3-383.2,336.2C-383.1,336.2-383.3,336.4-383.2,336.2z M-386.7,336.6
			C-386.7,336.6-386.7,336.6-386.7,336.6C-386.7,336.6-386.7,336.6-386.7,336.6z M-387.3,336.7c-0.1,0.1-0.1,0.2-0.3,0.3
			c-0.3,0.1-0.1,0.1-0.3-0.2C-387.5,336.6-387.8,336.7-387.3,336.7z M-369.9,335.1c0,0.1,0,0.2,0,0.3c-0.3,0-0.2,0-0.4-0.2
			C-370.1,335.2-370.1,335.2-369.9,335.1z M-387.2,336.5C-387.1,336.4-386.9,336.6-387.2,336.5
			C-387.1,336.6-387.3,336.7-387.2,336.5z M-386.1,335.8C-386.1,335.6-386,335.8-386.1,335.8L-386.1,335.8
			C-386.1,335.8-386.1,336-386.1,335.8z M-380,334.7c-0.1,0.1-0.2,0.1-0.2,0.2C-380.1,334.6-380.2,334.8-380,334.7z M-379.4,334.5
			C-379.4,334.6-379.5,334.5-379.4,334.5c-0.1,0.1-0.5,0.1-0.5,0.1C-379.8,334.5-379.6,334.5-379.4,334.5z M-353.5,358.8
			C-353.5,358.8-353.5,358.8-353.5,358.8C-353.5,358.8-353.5,358.8-353.5,358.8c0.2-0.1,0.4-0.1,0.5-0.2c0.1,0.4,0.3,0.4,0.4,0.8
			c0,0,0.1,0.2,0.1,0.3c0,0,0,0.1,0.1,0.1c0,0,0,0,0,0c0,0,0,0,0,0c0.4,0.5,0,0.1,0.6,0.8c0.6,0.6,0.2,0.8,0.4,1.4
			c0.4,0.8,0.3-0.1,0.8,1.2c0.2,0.3,0.6,0.8,0.6,1.3c0,0.7,0,0.1,0,0.9c0,0.8,0-0.4,0.2,0.6c-0.2-0.2-0.2-0.2-0.4-0.4
			c-0.5-0.5-0.2-0.3-0.7-0.7c-0.9-0.7-0.3-1.2-0.9-1.6c-0.4-0.3-0.4-0.3-0.4-0.7c-0.1-0.5,0-0.5-0.1-0.9c-0.2-0.4-0.5-0.6-0.6-0.9
			c-0.1-0.3,0.1,0-0.1-0.5C-353.2,359.6-353.2,359.6-353.5,358.8z M-353.9,358.1C-353.9,358.2-353.9,358.2-353.9,358.1
			C-353.9,358.2-353.9,358.2-353.9,358.1z M-358.6,353.5C-358.6,353.2-358.4,353.5-358.6,353.5L-358.6,353.5
			C-358.6,353.5-358.6,353.6-358.6,353.5z M-356.5,353.2C-356.5,353.2-356.5,353.2-356.5,353.2
			C-356.5,353.2-356.6,353.2-356.5,353.2z M-357.8,352.6c-0.1,0-0.1-0.1-0.2-0.1C-357.9,352.6-357.9,352.6-357.8,352.6z
			 M-356.9,352.4C-356.8,352.3-356.6,352.6-356.9,352.4C-356.8,352.5-357,352.6-356.9,352.4z M-357.4,352.3
			C-357.4,352.3-357.4,352.3-357.4,352.3C-357.4,352.3-357.4,352.3-357.4,352.3z M-356.2,352.4c0.1-0.1,0,0,0.2-0.1
			c0.1,0,0.2,0,0.3,0C-355.9,352.6-355.8,352.5-356.2,352.4z M-347.1,352.3c0.4,0.1,0.1,0,0.3,0.2c0,0,0.2,0.3,0.2,0.4
			C-347,352.9-347.1,352.9-347.1,352.3z M-348.2,351c-0.6-0.3,0.3,0.1-0.3-0.3c0,0.5,0.6,0.9,1.1,1.2c0,0.9,0.1,0.2,0.2,0.9
			c0.1,0.3,0.2,0.6,0.3,0.9c0.2-0.2,0.2-0.1,0.4,0.9c-0.9,0.1-0.9,0.2-1.4-0.3c-0.7-0.6-0.4-0.7-0.4-0.9c0-0.2,0.1-0.2,0.4-0.4
			c-0.3-0.4-0.2-0.1-0.5-0.4c-0.4-0.4-0.9-1.2-1.1-1.7c0.2-0.5-0.1-0.2,0.3-0.5c0.2-0.1,0.4-0.3,0.6-0.4c0.3-0.2,0.5-0.1,1,0
			C-347.5,351.3-347.9,350.1-348.2,351z M-354.7,350.2c0.1,0.2,0.3,0.4,0.4,0.5c0.6,0,0.6-0.3,1-0.3c0.5,0,0.1,0,0.8,0.4
			c0.6,0.3,0.9,0.8,1.3,1.3c-0.7,0.3-0.2,0.2-1.1,0.2c-0.2,0-0.7-0.2-0.9-0.3c0,0-0.1,0-0.2-0.1c-1.2-0.6-1.5,0.6-2.5,0.1
			c-0.3-0.2-0.1,0-0.2-0.2c0,0,0-0.1-0.1-0.1c0-0.2,0,0,0-0.2c0-0.1,0-0.2,0.1-0.3c0,0,0-0.1,0.1-0.1c0.4-0.8,0.3-0.3,0.4-0.9
			c0-0.3,0.1-0.3,0.3-0.6c0.4,0.1,0,0.2,0.9,0.2C-354.6,350.2-354.5,350-354.7,350.2z M-352.8,350c-0.3,0.1-0.6,0.1-0.9,0.2
			c-0.1-0.4,0.1-0.5,0.6-0.6c0.1,0,0.3,0,0.4-0.1c0,0,0,0-0.1,0c0,0.1,0-0.1-0.1,0.1C-353,350-352.8,349.6-352.8,350z M-362.4,345.4
			C-362.3,345.3-362.1,345.6-362.4,345.4C-362.3,345.5-362.5,345.6-362.4,345.4z M-362.2,345.1
			C-362.2,345.1-362.2,345.1-362.2,345.1C-362.2,345.1-362.2,345.1-362.2,345.1z M-353.4,340.8c-0.1,0-0.2,0.1-0.2,0.1
			c0,0.4,0.4,0.7-0.3,0.4c-0.2,0-0.4,0.1-0.7,0.1c0.2,0.1,0.4,0.2,0.5,0.3c-0.3,0-0.2,0-0.5-0.1c0,0-0.2-0.1-0.2-0.1
			c-0.1,0-0.2,0-0.3-0.3c-0.1-0.3,0.1,0-0.2-0.6C-354.3,340.8-354.7,341-353.4,340.8z M-355.5,340.5
			C-355.5,340.5-355.5,340.5-355.5,340.5C-355.4,340.5-355.5,340.5-355.5,340.5z M-358.1,338.6
			C-358.1,338.6-358.1,338.6-358.1,338.6C-358.1,338.6-358.1,338.6-358.1,338.6z"/>
		<path fill="#8E8E8E" d="M-360.9,396.1h-2.5c-1.7,1.2-3.5,2.2-5.5,2.9c-0.7,0.2-1.5,0.3-2.2,0.4c2.6-0.7,5-1.8,7.2-3.3h-3.1
			c-1.7,1.6-3.5,2.8-5.4,3.5c-0.4,0.1-0.8,0.1-1.2,0.1c2.2-0.6,4.3-1.9,6.2-3.7h-3.5c-1.1,1.8-2.3,3-3.5,3.7c-0.2,0-0.5,0-0.7,0
			c1.4-0.6,2.7-1.9,3.9-3.8h-3.5c-0.4,1.8-0.8,3.1-1.2,3.8l-0.3,0c0.4-0.5,0.9-1.9,1.2-3.8h-3.4c0.4,1.9,0.8,3.3,1.3,3.8l-0.2,0
			c-0.4-0.7-0.8-2-1.2-3.8h-3.6c1.2,1.9,2.5,3.2,3.9,3.8c-0.2,0-0.5,0-0.7,0c-1.3-0.7-2.4-2-3.5-3.7h-3.5c1.9,1.8,4,3.1,6.3,3.7
			c-0.4,0-0.8-0.1-1.2-0.1c-1.9-0.7-3.7-1.9-5.4-3.5h-3.1c2.3,1.5,4.7,2.7,7.3,3.4c-0.7-0.1-1.5-0.3-2.2-0.4
			c-1.9-0.7-3.8-1.7-5.5-2.9h-2.6c-0.2-0.1-0.3-0.2-0.5-0.3h2.7c-2.1-1.6-4.1-3.5-5.8-5.7c-0.5-0.6-0.9-1.2-1.3-1.8h-5.1l-0.2-0.3
			h5.2c-1.5-2.3-2.8-4.8-3.8-7.5h-6.4l-0.1-0.3h6.4c-0.9-2.4-1.6-4.9-2-7.5h-7l-0.1-0.3h7.1c-0.4-2.3-0.6-4.7-0.6-7.2h-7.3l0-0.3
			h7.3c0-2.6,0.2-5.2,0.7-7.6h-7.1l0.1-0.3h7.1c0.5-2.6,1.2-5.1,2.1-7.5h-6.6l0.1-0.3h6.5c1.1-2.7,2.4-5.2,3.9-7.5h-5.5l0.2-0.3h5.4
			c0.3-0.5,0.7-0.9,1-1.4c1.9-2.4,4-4.5,6.4-6.1h-3.3c0.2-0.1,0.3-0.2,0.5-0.3h3.2c2.7-1.8,5.7-3.1,8.9-3.6c0.9-0.1,1.8-0.2,2.6-0.2
			c1.7-0.1,3.3,0,4.9,0.2c3.2,0.6,6.1,1.8,8.8,3.6h3.1c0.2,0.1,0.3,0.2,0.5,0.3h-3.2c2.4,1.6,4.5,3.7,6.4,6.1c0.3,0.4,0.7,0.9,1,1.4
			h5.4l0.2,0.3h-5.4c1.6,2.3,2.9,4.8,3.9,7.5h6.5l0.1,0.3h-6.5c0.9,2.4,1.6,4.9,2.1,7.5h7.1l0.1,0.3h-7.1c0.4,2.4,0.7,5,0.7,7.6h7.2
			l0,0.3h-7.2c0,2.5-0.2,4.9-0.6,7.2h7l-0.1,0.3h-7c-0.4,2.6-1.1,5.1-2,7.5h6.3l-0.1,0.3h-6.3c-1,2.7-2.3,5.2-3.8,7.5h5.1l-0.2,0.3
			h-5.1c-0.4,0.6-0.9,1.2-1.3,1.8c-1.7,2.2-3.7,4.1-5.8,5.7h2.7C-360.6,395.9-360.8,396-360.9,396.1L-360.9,396.1z M-376.2,330.5
			c0.5,0.5,0.9,1.8,1.3,3.6h3.4C-373,332-374.6,330.8-376.2,330.5z M-374.9,334.4c0.4,1.9,0.8,4.5,1.1,7.5h5.7
			c-0.1-0.4-0.3-0.8-0.4-1.2c-0.8-2.5-1.8-4.6-2.8-6.2C-371.4,334.4-374.9,334.4-374.9,334.4z M-373.8,342.2
			c0.2,2.3,0.4,4.8,0.6,7.5h6.9c-0.5-2.7-1-5.2-1.7-7.5C-368.1,342.2-373.8,342.2-373.8,342.2z M-373.2,349.9
			c0.1,2.4,0.2,4.9,0.3,7.5h7.5c-0.2-2.6-0.5-5.1-0.9-7.5C-366.3,349.9-373.2,349.9-373.2,349.9z M-372.9,357.6
			c0.1,2.4,0.1,5,0.1,7.6h7.7c0-2.6-0.1-5.2-0.3-7.6C-365.4,357.6-372.9,357.6-372.9,357.6z M-372.8,365.5c0,2.5,0,4.9-0.1,7.2h7.6
			c0.2-2.3,0.3-4.7,0.3-7.2C-365.1,365.5-372.8,365.5-372.8,365.5z M-372.9,372.9c-0.1,2.6-0.2,5.1-0.3,7.5h7
			c0.4-2.4,0.7-4.9,0.9-7.5C-365.4,372.9-372.9,372.9-372.9,372.9z M-373.2,380.7c-0.1,2.7-0.3,5.2-0.5,7.5h5.8
			c0.7-2.3,1.2-4.8,1.7-7.5C-366.3,380.7-373.2,380.7-373.2,380.7z M-373.8,388.4c-0.1,0.6-0.1,1.2-0.2,1.7
			c-0.2,2.2-0.5,4.2-0.8,5.7h3.7c0.9-1.6,1.8-3.5,2.6-5.8c0.2-0.5,0.4-1.1,0.5-1.7C-368,388.4-373.8,388.4-373.8,388.4z
			 M-378.7,395.9c-0.4-2-0.7-4.5-1-7.5h-5.8c0.2,0.6,0.3,1.1,0.5,1.7c0.8,2.3,1.6,4.2,2.6,5.8C-382.4,395.9-378.7,395.9-378.7,395.9
			z M-379.7,388.1c-0.2-2.3-0.4-4.8-0.5-7.5h-6.9c0.4,2.7,1,5.2,1.7,7.5C-385.6,388.1-379.7,388.1-379.7,388.1z M-380.3,380.4
			c-0.1-2.4-0.2-4.9-0.3-7.5h-7.6c0.2,2.6,0.5,5.1,0.9,7.5C-387.3,380.4-380.3,380.4-380.3,380.4z M-380.6,372.7
			c-0.1-2.3-0.1-4.7-0.1-7.2h-7.7c0,2.5,0.1,4.9,0.3,7.2C-388.2,372.7-380.6,372.7-380.6,372.7z M-380.7,365.2c0-2.6,0-5.2,0.1-7.6
			h-7.5c-0.2,2.4-0.3,5-0.3,7.6C-388.4,365.2-380.7,365.2-380.7,365.2z M-380.6,357.4c0.1-2.6,0.2-5.1,0.3-7.5h-6.9
			c-0.4,2.4-0.7,4.9-0.9,7.5C-388.1,357.4-380.6,357.4-380.6,357.4z M-380.3,349.6c0.1-2.7,0.3-5.2,0.5-7.5h-5.7
			c-0.7,2.2-1.3,4.8-1.7,7.5C-387.2,349.6-380.3,349.6-380.3,349.6z M-379.7,341.9c0-0.4,0.1-0.9,0.1-1.3c0.3-2.4,0.6-4.5,0.9-6.2
			h-3.5c-1.1,1.6-2,3.7-2.8,6.2c-0.1,0.4-0.3,0.8-0.4,1.2C-385.4,341.9-379.7,341.9-379.7,341.9z M-378.6,334.2
			c0.4-1.8,0.8-3.1,1.3-3.6c-1.7,0.2-3.3,1.5-4.7,3.6C-382,334.2-378.6,334.2-378.6,334.2z M-373.1,365.2c0-2.6,0-5.2-0.1-7.6h-7.1
			c-0.1,2.4-0.1,5-0.1,7.6H-373.1z M-373.2,357.4c-0.1-2.6-0.2-5.1-0.3-7.5h-6.6c-0.1,2.4-0.2,4.9-0.3,7.5
			C-380.3,357.4-373.2,357.4-373.2,357.4z M-373.5,349.6c-0.1-2.7-0.3-5.2-0.5-7.5h-5.4c-0.2,2.2-0.4,4.8-0.5,7.5
			C-380,349.6-373.5,349.6-373.5,349.6z M-374,341.9c-0.3-3-0.6-5.6-1-7.5h-3.3c-0.3,1.6-0.6,3.7-0.9,6.2c0,0.4-0.1,0.8-0.1,1.3
			C-379.4,341.9-374,341.9-374,341.9z M-375.1,334.2c-0.5-2.3-1-3.7-1.6-3.7c-0.6,0-1.1,1.3-1.6,3.7
			C-378.4,334.2-375.1,334.2-375.1,334.2z M-380.4,365.5c0,2.5,0,4.9,0.1,7.2h7.2c0.1-2.3,0.1-4.7,0.1-7.2
			C-373.1,365.5-380.4,365.5-380.4,365.5z M-380.3,372.9c0.1,2.6,0.2,5.1,0.3,7.5h6.6c0.1-2.4,0.2-4.9,0.3-7.5
			C-373.2,372.9-380.3,372.9-380.3,372.9z M-380,380.7c0.1,2.7,0.3,5.2,0.5,7.5h5.5c0.2-2.3,0.4-4.8,0.5-7.5
			C-373.5,380.7-380,380.7-380,380.7z M-379.5,388.4c0.3,3,0.6,5.5,1,7.5h3.5c0.3-1.6,0.6-3.5,0.8-5.8c0.1-0.5,0.1-1.1,0.2-1.7
			C-374,388.4-379.5,388.4-379.5,388.4z M-374.9,330.7c1.3,0.6,2.5,1.8,3.7,3.5h3.3C-370,332.3-372.4,331.1-374.9,330.7z
			 M-371.1,334.4c1,1.6,2,3.7,2.8,6.1c0.1,0.4,0.3,0.9,0.4,1.3h5.8c-0.2-0.4-0.4-0.8-0.7-1.2c-1.4-2.5-3.1-4.6-4.8-6.2L-371.1,334.4
			L-371.1,334.4z M-367.8,342.2c0.7,2.2,1.2,4.8,1.7,7.5h7c-0.8-2.7-1.8-5.2-2.9-7.5C-362,342.2-367.8,342.2-367.8,342.2z
			 M-366,349.9c0.4,2.4,0.7,4.9,0.9,7.5h7.7c-0.3-2.6-0.9-5.1-1.5-7.5H-366z M-365.1,357.6c0.2,2.4,0.3,5,0.3,7.6h7.9
			c0-2.6-0.2-5.2-0.5-7.6C-357.4,357.6-365.1,357.6-365.1,357.6z M-364.8,365.5c0,2.5-0.1,4.9-0.3,7.2h7.7c0.3-2.3,0.4-4.7,0.4-7.2
			H-364.8z M-365.1,372.9c-0.2,2.6-0.5,5.1-0.9,7.5h7.1c0.6-2.4,1.1-4.9,1.5-7.5C-357.4,372.9-365.1,372.9-365.1,372.9z M-366,380.7
			c-0.4,2.7-1,5.2-1.7,7.5h5.9c1.1-2.3,2.1-4.8,2.8-7.5C-358.9,380.7-366,380.7-366,380.7z M-367.7,388.4c-0.2,0.6-0.4,1.2-0.6,1.7
			c-0.7,2.2-1.6,4.1-2.5,5.7h3.7c1.6-1.6,3.1-3.5,4.4-5.8c0.3-0.5,0.6-1.1,0.9-1.6C-361.9,388.4-367.7,388.4-367.7,388.4z
			 M-382.7,395.9c-0.9-1.6-1.8-3.5-2.5-5.7c-0.2-0.6-0.4-1.1-0.6-1.7h-5.8c0.3,0.6,0.6,1.1,0.9,1.6c1.3,2.3,2.8,4.2,4.4,5.8
			C-386.3,395.9-382.7,395.9-382.7,395.9z M-385.8,388.1c-0.7-2.3-1.2-4.8-1.7-7.5h-7.1c0.8,2.7,1.7,5.2,2.8,7.5
			C-391.8,388.1-385.8,388.1-385.8,388.1z M-387.5,380.4c-0.4-2.4-0.7-4.9-0.9-7.5h-7.7c0.3,2.6,0.8,5.1,1.5,7.5
			C-394.6,380.4-387.5,380.4-387.5,380.4z M-388.4,372.7c-0.2-2.3-0.3-4.7-0.3-7.2h-7.9c0,2.5,0.2,4.9,0.4,7.2
			C-396.1,372.7-388.4,372.7-388.4,372.7z M-388.7,365.2c0-2.6,0.1-5.2,0.3-7.6h-7.7c-0.3,2.4-0.5,5-0.5,7.6
			C-396.6,365.2-388.7,365.2-388.7,365.2z M-388.4,357.4c0.2-2.6,0.5-5.1,0.9-7.5h-7c-0.7,2.4-1.2,4.9-1.5,7.5
			C-396,357.4-388.4,357.4-388.4,357.4z M-387.4,349.6c0.5-2.7,1-5.2,1.7-7.5h-5.8c-1.1,2.2-2.1,4.8-2.9,7.5
			C-394.4,349.6-387.4,349.6-387.4,349.6z M-385.6,341.9c0.1-0.5,0.3-0.9,0.4-1.3c0.8-2.4,1.8-4.5,2.8-6.1h-3.5
			c-1.8,1.6-3.4,3.8-4.8,6.2c-0.2,0.4-0.4,0.8-0.7,1.2C-391.4,341.9-385.6,341.9-385.6,341.9z M-382.3,334.2
			c1.1-1.7,2.4-2.9,3.7-3.5c-2.5,0.4-4.9,1.6-7,3.5C-385.6,334.2-382.3,334.2-382.3,334.2z M-373.1,330.8c2,0.6,3.9,1.8,5.6,3.4h2.9
			C-367.2,332.5-370.1,331.3-373.1,330.8z M-367.2,334.4c1.7,1.6,3.3,3.7,4.7,6.1c0.2,0.4,0.5,0.9,0.7,1.3h5.2
			c-0.3-0.4-0.6-0.8-0.9-1.2c-2-2.5-4.2-4.6-6.7-6.3C-364.2,334.4-367.2,334.4-367.2,334.4z M-361.7,342.2c1.1,2.3,2.1,4.8,2.9,7.5
			h6.4c-1.1-2.7-2.4-5.2-4-7.5C-356.4,342.2-361.7,342.2-361.7,342.2z M-358.7,349.9c0.7,2.4,1.2,4.9,1.5,7.5h7
			c-0.5-2.6-1.2-5.1-2.1-7.5C-352.3,349.9-358.7,349.9-358.7,349.9z M-357.2,357.6c0.3,2.4,0.5,5,0.5,7.6h7.2c0-2.6-0.2-5.2-0.7-7.6
			C-350.2,357.6-357.2,357.6-357.2,357.6z M-356.7,365.5c0,2.5-0.2,4.9-0.4,7.2h7c0.4-2.3,0.6-4.7,0.6-7.2
			C-349.5,365.5-356.7,365.5-356.7,365.5z M-357.1,372.9c-0.3,2.6-0.8,5.1-1.5,7.5h6.4c0.9-2.4,1.6-4.9,2-7.5
			C-350.1,372.9-357.1,372.9-357.1,372.9z M-358.7,380.7c-0.7,2.7-1.7,5.2-2.8,7.5h5.3c1.5-2.3,2.8-4.8,3.9-7.5H-358.7L-358.7,380.7
			z M-361.6,388.4c-0.3,0.6-0.6,1.2-0.9,1.8c-1.3,2.2-2.7,4.1-4.3,5.7h3.2c2.2-1.6,4.3-3.6,6.1-5.8c0.4-0.5,0.8-1.1,1.2-1.6
			C-356.3,388.4-361.6,388.4-361.6,388.4z M-386.7,395.9c-1.6-1.6-3-3.5-4.3-5.7c-0.3-0.6-0.6-1.2-0.9-1.8h-5.3
			c0.4,0.6,0.8,1.1,1.2,1.6c1.8,2.3,3.8,4.3,6.1,5.8C-390,395.9-386.7,395.9-386.7,395.9z M-392,388.1c-1.1-2.3-2-4.8-2.8-7.5h-6.4
			c1,2.7,2.3,5.2,3.9,7.5H-392L-392,388.1z M-394.9,380.4c-0.6-2.4-1.1-4.9-1.5-7.5h-7c0.5,2.6,1.1,5.1,2,7.5
			C-401.4,380.4-394.9,380.4-394.9,380.4z M-396.4,372.7c-0.3-2.3-0.4-4.7-0.4-7.2h-7.2c0,2.5,0.2,4.9,0.6,7.2
			C-403.4,372.7-396.4,372.7-396.4,372.7z M-396.8,365.2c0-2.6,0.2-5.2,0.5-7.6h-7c-0.4,2.4-0.7,5-0.7,7.6
			C-404,365.2-396.8,365.2-396.8,365.2z M-396.3,357.4c0.3-2.6,0.9-5.1,1.5-7.5h-6.4c-0.9,2.4-1.6,4.9-2.1,7.5
			C-403.3,357.4-396.3,357.4-396.3,357.4z M-394.7,349.6c0.8-2.7,1.7-5.2,2.9-7.5h-5.3c-1.6,2.2-2.9,4.8-4,7.5
			C-401.1,349.6-394.7,349.6-394.7,349.6z M-391.7,341.9c0.2-0.5,0.5-0.9,0.7-1.3c1.4-2.4,3-4.5,4.7-6.1h-3.1
			c-2.5,1.6-4.7,3.8-6.7,6.3c-0.3,0.4-0.6,0.8-0.9,1.2C-396.9,341.9-391.7,341.9-391.7,341.9z M-386,334.2c1.7-1.6,3.6-2.7,5.6-3.4
			c-3,0.5-5.9,1.7-8.6,3.4H-386z"/>
	</g>
	<path display="inline" fill="#8E8E8E" d="M-405.7,327.8c-1.2-1.4-3.3,0.4-2.1,1.8l4,4.7c-8,7.2-12.6,16.9-13.5,27
		c-1.9,22.2,14.2,41.9,36.3,44.4v8.8h-13.6l-4.9,9.6l42.7,0l-4.9-9.6h-13.6v-8.6c8.5-0.2,16.9-3.1,24.1-8.7l3.9,4.7
		c1.2,1.4,3.3-0.4,2.1-1.8c-1.9-2.3-3.8-4.5-5.7-6.8c-7.9,7.1-18.4,10.6-29,9.7c-21.1-1.8-36.6-20.4-34.8-41.5
		c0.9-10.6,6.2-20.3,14.6-26.9C-401.9,332.4-403.8,330.1-405.7,327.8L-405.7,327.8z"/>
</g>
<g id="Knowledge_Icon">
	<path fill="#848484" d="M-357.3,413c0-3.7-1.3-6.1-3.5-6.1h-1.5c0.2-0.8,0.4-1.9,0.4-3c0-3.7-1.3-6.1-3.5-6.1h-18.8
		c0.1-2.7,0.2-5.5,0.3-8.3c0.2-3,0.2-6.3-0.4-9.5c0-0.2-0.1-0.3-0.1-0.4c0.3-1,0.8-1.9,1.1-2.4c2.9-4.6,9.9-3.3,9.4,1.7
		c-0.2,1.3-0.9,2.4-2.3,2.7c-1.1,0.3-2-0.5-2.4-1.1c-0.2-0.5-0.4-1.3-0.4-1.9c0-0.2-2.6,2.5-0.4,4.6c3,2.9,8.5,0.1,8-5.2
		c-0.3-3-2.2-5.5-5.2-6.1c-4.1-0.9-7.4,1.9-8.5,4.6c-0.5-1.9-1.1-3.8-1.9-5.5c-1.1-2.9-2.5-5.6-3.7-8.3c-0.5-1-0.8-1.9-1.1-2.9
		l1.2-1.8c14.3-4.9,12.2-17.1,12.2-17.3l-0.2-0.9l-0.9,0.3c-7,2.7-11.2,6.1-12.7,10.2c-1.1,3.3-0.2,5.9,0.2,6.9l-0.5,0.8
		c-0.4-1.2-0.8-2.4-1.1-3.6c-0.6-2.8-0.6-5.8-0.1-8.6s1.5-5.7,3.1-8.3c1.5-2.5,3.6-4.8,6.2-6.4c-2.7,1.4-5.1,3.5-6.9,6
		c-1.7,2.4-3,5-3.8,7.9l-1.7-1c-0.1-0.9-0.5-3-2.3-4.9c-2.7-2.7-7.4-3.8-14-3l-0.9,0.1l0.3,0.9c0,0.1,2.9,8.3,12.9,8.3l0,0
		c1,0,2-0.1,3-0.2l2.2,1.3c-0.6,2.7-0.8,5.5-0.5,8.3c0.4,3.1,1.3,6.1,2.3,9c0.8,2.4,1.7,4.8,2.5,7.1c-0.8-0.5-1.9-1-3.3-1.5
		c0-1.4-0.2-5.2-3.4-8.8c-3.9-4.3-10.7-6.5-20.2-6.5c-0.7,0-1.4,0-2.1,0h-0.9l0.2,0.9c0,0.2,3.9,15.7,22.9,15.7l0,0
		c0.8,0,1.7,0,2.6-0.1c2.4,0.9,4.7,2.2,4.9,2.7c0,0,0,0,0-0.1c0.8,2.5,1.3,4.9,1.4,7.4c0.2,2.8,0,5.6-0.4,8.6
		c-0.4,2.8-0.8,5.8-1.1,8.7h-19.7c-0.6,0-1.1,0.3-1.4,0.8c-0.2,0.5-0.2,1.1,0.2,1.6c1,1.3,2.1,3.9,1.7,5.5c-0.2,0.5-0.4,0.9-0.9,1.1
		h-5.8c-0.6,0-1.1,0.3-1.4,0.8c-0.2,0.5-0.2,1.1,0.2,1.6c1,1.3,2.1,3.9,1.7,5.5c-0.2,0.5-0.4,0.9-0.9,1.1h-2.7
		c-0.6,0-1.1,0.3-1.4,0.8s-0.2,1.1,0.2,1.6c1,1.3,2.1,3.9,1.7,5.5c-0.2,0.6-0.5,1-1.1,1.3c-0.7,0.3-1,1-0.8,1.7
		c0.2,0.7,0.8,1.2,1.5,1.2h55.5c2.1,0,3.5-2.4,3.5-6.1c0-1.1-0.2-2.2-0.4-3h0.1C-358.5,419.1-357.3,416.7-357.3,413z M-383.5,351.9
		l-2.1,0.2c-0.5,0.1-1.1,0.1-1.5,0.1c0.7-1,1.4-2,2-2.9c1,0.1,2-0.2,2.8-0.5c0.5-0.2,1.1-0.5,1.4-0.9
		C-381.4,349.1-382.2,350.6-383.5,351.9z M-380.5,347.1c-0.8,0.2-1.4,0.4-2.1,0.5c-0.4,0.1-0.8,0.2-1.2,0.2c1.6-2,3.1-3.9,4.2-5.1
		C-379.8,343.8-379.9,345.4-380.5,347.1z M-384.9,344.7c0-0.1,0.1-0.2,0.1-0.3c0.9-0.5,1.9-1.1,3-1.6c-0.9,1.1-2,2.5-3.3,4
		c-0.1-0.3-0.1-0.6-0.1-0.8C-385.1,345.5-385,345-384.9,344.7z M-388.9,347.8c0.8-0.9,1.6-1.7,2.7-2.5c-0.1,0.1-0.1,0.2-0.1,0.3
		c-0.2,0.5-0.2,1.1-0.1,1.7c0.1,0.3,0.2,0.6,0.2,0.9c-0.8,1-1.4,2-2.1,3c0,0,0,0,0-0.1c-0.2-0.5-0.3-0.9-0.5-1.4
		c-0.1-0.5-0.2-1-0.2-1.4C-389,348.2-389,348-388.9,347.8z M-388.1,353.6c1,0,1.9-0.2,2.8-0.4c0.2-0.1,0.5-0.2,0.7-0.2
		c-1.3,1.1-2.9,2-4.9,2.9C-389,355.1-388.6,354.4-388.1,353.6z M-390.7,350.8c0.2-0.5,0.4-0.9,0.7-1.4c0,0.2,0,0.3,0,0.5
		c0,0.6,0.1,1.1,0.2,1.7c0.2,0.4,0.2,0.8,0.5,1.1c-0.6,0.9-1.1,1.7-1.6,2.6C-391.2,354.3-391.3,352.6-390.7,350.8z M-402.6,338.4
		c0.1,0.1,0.1,0.2,0.2,0.2c0.2,0.4,0.3,0.8,0.4,1.1c0.1,0.3,0.2,0.6,0.2,1c-0.8-0.5-1.7-0.8-2.5-1.2c-0.1-0.2-0.1-0.5-0.2-0.8
		c-0.2-0.4-0.4-0.8-0.7-1.1C-404.4,337.8-403.5,338.1-402.6,338.4z M-407,337.4L-407,337.4c0.3,0.3,0.5,0.6,0.7,0.9
		c0.1,0.2,0.2,0.2,0.2,0.4c-1.1-0.5-2.2-1-3.2-1.4C-408.5,337.3-407.8,337.4-407,337.4z M-411.2,338.2c1.1,0.5,2.7,1.1,4.5,1.9
		c-0.2,0.1-0.5,0.2-0.7,0.2c-0.5,0.2-1.1,0.3-1.6,0.5C-410.1,340-410.7,339-411.2,338.2z M-405,343.2c-1.4-0.5-2.4-1.1-3.3-1.7
		c0.4,0.1,0.7,0.1,1.1,0.1c0.8,0,1.5-0.2,2.3-0.6c0.8,0.4,1.6,0.8,2.4,1.2c-0.3,0.2-0.6,0.3-0.9,0.5C-404,342.8-404.4,343-405,343.2
		z M-400.6,343.9L-400.6,343.9c-0.9,0-1.7-0.1-2.6-0.2c0.8-0.2,1.4-0.3,2.1-0.7c0.5,0.3,1.1,0.6,1.5,0.9
		C-399.8,343.8-400.2,343.9-400.6,343.9z M-400.3,341.6c0-0.3-0.1-0.6-0.2-0.9c-0.1-0.5-0.2-0.9-0.5-1.3c0.3,0.2,0.6,0.5,0.9,0.8
		c0.8,0.8,1.4,1.8,1.6,2.6C-399.1,342.3-399.7,341.9-400.3,341.6z M-403.3,358.2c0.2,0.3,0.5,0.7,0.7,1c0.4,0.6,0.6,1.3,0.8,2
		c0.2,0.7,0.2,1.4,0.3,2c0,0.2,0,0.5,0,0.7c-1.7-1.1-3.4-2.1-5.2-3.1c0-0.5-0.1-1-0.2-1.4c-0.2-0.8-0.5-1.4-1-2
		c-0.3-0.4-0.7-0.8-1.1-1.1C-406.9,356.8-405,357.4-403.3,358.2z M-410.7,356c0.2,0.2,0.4,0.3,0.6,0.5c0.5,0.5,0.8,0.9,1.1,1.4
		c0.3,0.5,0.5,1.1,0.6,1.7c0,0.1,0,0.2,0,0.2c-3.2-1.8-6.2-3.3-8.3-4.4C-414.5,355.6-412.6,355.7-410.7,356z M-418.6,356.3
		c2,1,5.7,2.9,9.6,5.1c-0.8,0.3-1.6,0.5-2.4,0.7c-1.1,0.2-2.3,0.3-3.4,0.3C-416.9,360.1-418,357.8-418.6,356.3z M-414.5,362.7
		c0.4,0.2,0.8,0.2,1.1,0.3c0.7,0.2,1.4,0.2,2,0.2c1.4,0,2.7-0.2,3.9-0.9c1.7,1,3.3,2,5,3c-0.8,0.4-1.7,0.7-2.7,0.9
		c-1.1,0.3-2.2,0.5-3.3,0.8C-411,365.9-413,364.3-414.5,362.7z M-397.8,369.2L-397.8,369.2c-3.9,0-7.1-0.7-9.6-1.7
		c0.2,0,0.3,0,0.4,0c0.8,0,1.4,0,2.2-0.1c1.4-0.2,2.7-0.5,3.9-1.1c1.4,1,2.7,1.9,3.9,2.8C-397.2,369.2-397.5,369.2-397.8,369.2z
		 M-400.1,365c0-0.6,0-1.2-0.1-1.8c-0.1-0.8-0.3-1.6-0.6-2.4c-0.2-0.6-0.6-1.2-1-1.7c1.1,0.7,2.1,1.5,3,2.4c2.2,2.4,2.8,4.9,3,6.6
		C-397.1,367-398.5,366-400.1,365z M-365.5,400.9c0.2,0.4,0.6,1.4,0.6,3s-0.4,2.7-0.6,3h-41.2c0.1-0.2,0.1-0.3,0.2-0.4
		c0.5-1.9-0.1-4-0.8-5.7H-365.5z M-364.2,425.1h-51.9c0.1-0.2,0.1-0.3,0.2-0.4c0.5-1.9-0.1-4-0.8-5.7h0.5h52.1
		c0.2,0.4,0.6,1.4,0.6,3S-363.9,424.8-364.2,425.1z M-360.9,416h-3h-49c0.1-0.2,0.1-0.3,0.2-0.4c0.5-1.9-0.1-4-0.8-5.7h3.5h44.8h4.4
		c0.2,0.4,0.6,1.4,0.6,3S-360.7,415.7-360.9,416z"/>
</g>
</svg>
